<?xml version="1.0" encoding="UTF-8"?>
<svg xmlns="http://www.w3.org/2000/svg" width="50" height="50" viewBox="0 0 50 50" fill="none">
  <mask id="mask0_3316_79" style="mask-type:alpha" maskUnits="userSpaceOnUse" x="0" y="0" width="50" height="50">
    <rect width="50" height="50" fill="#D9D9D9"></rect>
  </mask>
  <g mask="url(#mask0_3316_79)">
    <path fill-rule="evenodd" clip-rule="evenodd" d="M45.4544 4.23455V5.18734L25.5672 1.94776L5.68164 5.18734V4.23455L25.5672 0.973633L45.4544 4.23455Z" fill="white"></path>
    <path fill-rule="evenodd" clip-rule="evenodd" d="M45.4544 3.26007V4.23447L25.5672 0.973553L5.68164 4.23447V3.26007L25.5672 0L45.4544 3.26007Z" fill="#33A457"></path>
    <path fill-rule="evenodd" clip-rule="evenodd" d="M45.4544 5.18685L25.5672 1.94727L5.68164 5.18685L5.68195 8.47394L5.85427 8.38319C5.92436 8.34677 12.9807 4.71031 25.6055 4.71031C38.2312 4.71031 45.2052 8.34762 45.2759 8.38375L45.4464 8.47479L45.4544 5.18685Z" fill="#CC2131"></path>
    <path fill-rule="evenodd" clip-rule="evenodd" d="M25.6059 5.34668C37.0067 5.34668 43.6826 8.32879 44.7646 8.8517V18.3147C44.7646 23.4738 43.4573 28.6132 40.8808 33.5931C35.241 44.47 26.7546 48.7409 25.5677 49.2983C24.3798 48.7409 15.887 44.47 10.2488 33.5931C7.67219 28.6132 6.36523 23.4738 6.36523 18.3147V8.85284C7.45702 8.3305 14.203 5.34668 25.6059 5.34668Z" fill="#FFF22D"></path>
    <path fill-rule="evenodd" clip-rule="evenodd" d="M5.85396 8.38186L5.68164 8.47261V18.3126C5.68164 23.5684 7.01094 28.8012 9.6328 33.8649C15.7877 45.7427 25.33 49.8978 25.4255 49.9385L25.5669 49.9986L25.708 49.9385C25.8044 49.8978 35.3388 45.7416 41.4934 33.8649C44.1165 28.8012 45.4461 23.5684 45.4461 18.3126V8.47347L45.2756 8.38243C45.2052 8.34629 38.2309 4.70898 25.6052 4.70898C12.9804 4.70898 5.92405 8.34544 5.85396 8.38186ZM25.6052 5.34455C37.006 5.34455 43.6819 8.32667 44.7639 8.84957V18.3126C44.7639 23.4716 43.4566 28.6111 40.88 33.591C35.2402 44.4679 26.7539 48.7388 25.5669 49.2961C24.379 48.7388 15.8863 44.4679 10.248 33.591C7.67145 28.6111 6.3645 23.4716 6.3645 18.3126V8.85071C7.45628 8.32837 14.2022 5.34455 25.6052 5.34455Z" fill="black"></path>
    <path fill-rule="evenodd" clip-rule="evenodd" d="M28.5928 40.1269C28.9239 40.3397 28.6837 40.7092 28.4385 40.767C28.1832 40.8316 27.965 40.5681 27.8413 40.8569C27.7719 41.0119 27.9604 42.1866 29.2533 42.1866C30.4601 42.1866 31.0359 40.7465 31.1494 40.5297C31.2636 40.3135 31.3371 40.0375 31.2229 40.0375C30.6934 40.0375 30.5391 40.3297 30.5391 40.3297C30.5391 40.3297 30.499 40.0486 30.7622 39.8364C30.9793 39.6631 31.2639 39.7052 31.3667 39.7052C31.5825 39.7052 31.5486 39.5559 31.6789 39.2603C31.9761 38.5647 32.1806 38.5334 32.3737 38.2162C32.5338 37.9578 32.2314 37.8566 31.6349 37.8045C31.0365 37.7516 30.716 37.7741 30.4488 37.8102C30.181 37.8457 29.9144 37.9467 29.7482 38.3274C29.6591 38.5337 29.8223 38.7368 30.1357 38.6842C30.4488 38.6298 30.7503 38.4096 30.7503 38.4096C30.7503 38.4096 30.6092 38.9308 30.1418 39.0386C29.7084 39.1377 29.1967 38.8947 29.2655 38.487C29.3552 37.9581 29.7485 37.5706 30.466 37.4401C31.1846 37.3055 31.9009 37.4085 32.5396 37.5544C33.1763 37.7038 33.6449 37.6133 34.2368 37.5812C35.5132 37.5177 36.3041 37.2378 36.3041 37.2378C36.3041 37.2378 35.729 37.6716 34.9316 37.8722C34.1343 38.0745 33.4233 37.9906 33.1931 38.0745C33.0073 38.1485 32.7447 38.4913 32.5283 38.883C32.3294 39.2432 32.1176 39.6583 32.2091 39.6583C32.9504 39.6845 33.2219 39.5337 33.2219 39.5337C33.2219 39.5337 33.0753 39.831 32.7221 39.9715C32.4769 40.0637 32.0609 40.0637 32.0609 40.0637C32.0609 40.0637 31.8739 40.5038 31.6633 40.901C31.4512 41.2979 31.1038 41.9178 30.4785 42.2245C29.8507 42.5306 28.6503 42.9124 27.8943 41.9016C27.0945 40.8412 27.8245 39.635 28.5928 40.1269ZM19.3109 40.2651C19.4585 40.6162 19.145 40.7991 18.9629 40.7991C18.7802 40.7991 18.5528 40.6731 18.5053 40.8853C18.4619 41.0959 18.9905 42.1818 20.2203 42.1818C21.4507 42.1818 22.021 41.52 21.9343 40.9271C21.8379 40.2654 20.707 40.0025 19.8056 39.5618C19.3645 39.3468 18.3676 39.2028 18.3676 38.3354C18.3676 36.4833 21.3999 37.6662 21.3999 37.6662C21.3999 37.6662 21.4063 37.4346 21.5475 37.4238C21.6157 37.4179 21.7528 37.3928 21.7984 37.6022C21.8434 37.8133 22.0439 38.9257 22.0439 38.9257C22.0439 38.9257 21.5983 38.0788 20.3752 37.7089C20.1588 37.6383 19.2127 37.4711 19.2182 38.1672C19.2295 38.5806 19.7716 38.7661 20.7112 39.1052C21.9463 39.5553 22.5789 39.9744 22.2872 41.1812C22.0096 42.34 20.7908 42.5306 20.1983 42.5306C19.6069 42.5306 18.2461 42.1451 18.2461 40.8737C18.2461 39.9746 19.1949 39.9957 19.3109 40.2651ZM25.7903 33.3012L26.2883 33.5205C26.5754 33.6238 26.7587 33.5783 26.8245 33.5527C26.894 33.5248 27.1569 33.2625 27.2142 33.0391C27.2411 32.9481 27.2267 32.869 27.1747 32.8107C26.981 32.5973 26.6378 31.6172 26.5105 31.0875C26.4634 30.8909 26.5206 30.3484 26.565 29.9117C26.6039 29.5367 26.6277 29.3037 26.6075 29.2437C26.5736 29.1509 26.4245 29.0613 26.2531 28.9603L25.9816 28.7885C25.8368 28.6784 25.8304 28.5284 25.8224 28.3674L25.7937 28.1173C25.7306 27.8846 24.4564 26.6749 24.259 26.6638C23.9728 26.6465 23.8984 26.9384 23.8801 27.1139C23.8687 27.2166 23.9964 27.6752 24.1115 28.0818L24.2385 28.572C24.3689 29.3427 25.2504 30.7 25.6263 31.2792L25.8047 31.5609C25.8818 31.7242 25.8518 31.8531 25.7147 31.9253C25.5816 31.9965 24.4359 31.8852 23.8886 31.768C23.6536 31.7179 23.3634 31.609 23.0803 31.5023C22.7562 31.3822 22.4489 31.2656 22.2713 31.2573C22.0641 31.2474 21.9659 31.2864 21.8896 31.3191L21.7654 31.3512L21.6417 31.3145C21.4899 31.2522 21.2062 31.1384 20.4315 31.0733C19.3024 30.9748 19.2176 31.1859 19.1717 31.3C19.1157 31.4451 19.8059 32.1273 19.9292 32.2187C20.0862 32.3364 20.594 32.516 20.9041 32.4682C21.2585 32.4152 21.8364 32.3487 21.908 32.362L22.0243 32.428L22.1324 32.4992C22.2303 32.5364 22.8614 32.5686 23.0521 32.578C23.2722 32.5891 23.8501 32.7003 24.2725 32.7825L24.7444 32.871C24.9293 32.9026 25.4056 33.1211 25.7903 33.3012Z" fill="black"></path>
    <path fill-rule="evenodd" clip-rule="evenodd" d="M37.4698 19.6915C37.4447 19.6628 37.4239 19.6611 37.4107 19.6642C37.3988 19.6679 37.3825 19.6784 37.378 19.7126C37.3571 19.8588 37.1597 20.2346 37.003 20.2901C36.6856 20.4042 36.5212 20.7501 36.4022 21.0022C36.3413 21.1322 36.2819 21.2563 36.2348 21.258C36.2146 21.2594 36.1922 21.2392 36.1677 21.1971C35.9721 20.8836 36.0817 20.4042 36.1696 20.0178L36.1898 19.9231C36.2614 19.5974 36.6715 19.141 36.9167 18.8673L37.025 18.7461C37.1919 18.5527 37.2338 17.8972 37.2026 17.848C37.1925 17.8451 37.1857 17.8505 37.1818 17.8562C37.1779 17.8591 37.1747 17.8625 37.1723 17.8665L37.1686 17.8659V17.8693C37.1585 17.8796 37.1499 17.8807 37.1417 17.9137C37.0979 18.1185 36.6951 18.5348 36.007 19.0878C35.8659 19.2013 35.7052 19.4065 35.5736 19.5712C35.4888 19.6793 35.3894 19.8039 35.363 19.8099C35.1926 18.9644 35.5011 18.481 35.6477 18.2474L35.716 18.1288C36.007 17.3925 36.7566 16.8349 36.7646 16.8298C36.7747 16.8084 36.7747 16.7857 36.7563 16.7712C36.7275 16.7507 36.6749 16.7595 36.5919 16.7982L36.5466 16.8192C36.2853 16.9373 35.4968 17.2943 35.0132 18.1541C34.6658 18.7732 34.5314 19.4651 34.5314 19.9868C34.5314 20.2531 34.566 20.4739 34.6248 20.6201C34.7947 21.0412 35.0922 22.0876 35.1837 22.4984C35.2406 22.753 35.2495 23.6273 35.2495 24.1752C35.2495 24.4429 35.2483 24.6304 35.2483 24.6375C35.2464 24.6375 35.0983 25.0819 35.0983 25.0819C35.0977 25.0865 35.0261 25.4336 34.4157 26.0137C33.8011 26.5972 33.1167 26.7826 33.1106 26.7849C32.8358 26.8048 32.5851 26.7943 32.5762 26.761C32.5762 26.0942 31.3476 24.5428 30.7189 24.031C30.0774 23.5084 29.5647 23.134 28.6936 22.6412C27.8066 22.1394 26.8201 20.0355 26.8088 20.015L26.7234 19.7308C26.7234 19.7308 26.6756 19.1632 26.6625 19.0156C26.6946 19.0326 26.7365 19.0568 26.7365 19.0568L27.0389 19.2204L27.3863 19.3444C27.3894 19.3453 27.8412 19.4275 27.8412 19.4275C27.8412 19.4284 28.094 19.5487 28.094 19.5487L28.3284 19.6904L28.693 19.9351L29.0673 20.118C29.075 20.12 29.5169 20.141 29.5169 20.141L29.5271 20.1072C29.5271 20.1072 29.0153 19.8838 29.0141 19.8838C29.0141 19.877 28.8298 19.584 28.8298 19.584C28.7582 19.4884 28.6866 19.3927 28.6152 19.2969C28.6082 19.2924 28.3493 19.1487 28.3493 19.1487C28.2397 19.1332 28.1299 19.1188 28.0199 19.1055C28.0199 19.1029 27.9553 19.0514 27.922 19.0235C27.9507 19.0079 28.0049 18.9766 28.0049 18.9766C28.0049 18.9803 28.3575 19.0181 28.3587 19.0181C28.3587 19.0215 28.6725 19.2198 28.6725 19.2198L29.015 19.4651C29.0205 19.4676 29.3391 19.5826 29.3391 19.5826L29.381 19.5979L29.2412 19.2597C29.1537 19.1818 29.0657 19.1045 28.977 19.0278L28.5889 18.7211C28.5859 18.7185 28.2841 18.574 28.2841 18.574C28.281 18.5735 27.959 18.4725 27.959 18.4725C27.959 18.4719 27.6183 18.2699 27.6183 18.2699C27.6183 18.2699 27.622 18.2483 27.6245 18.2298C27.6676 18.2451 28.0961 18.405 28.0961 18.405C28.0986 18.4053 28.5069 18.5086 28.5069 18.5086C28.5063 18.5072 28.8494 18.6304 28.8494 18.6304C28.8482 18.6292 29.3419 18.8531 29.3419 18.8531C29.3462 18.8551 29.7551 18.9376 29.7551 18.9376C29.7621 18.9379 30.2595 18.8551 30.2595 18.8551C30.2659 18.8523 30.74 18.5456 30.74 18.5456C30.7455 18.5373 30.8328 18.355 30.8328 18.355L30.8514 18.3129L30.699 18.3715C30.6978 18.3715 30.2687 18.574 30.2681 18.574L29.9709 18.6358C29.9709 18.6343 29.6354 18.5732 29.6348 18.5732H29.6354C29.6354 18.5695 29.3633 18.3342 29.3633 18.3342L28.977 17.9865L28.6278 17.8204C28.6229 17.8184 28.2146 17.7569 28.2146 17.7569C28.2146 17.7561 27.966 17.6386 27.9618 17.6366C27.963 17.6366 27.9636 17.6323 27.9636 17.6264C27.9636 17.5985 27.9559 17.5376 27.9529 17.5091L28.4665 17.5493L29.0291 17.5072C29.0291 17.5086 29.3459 17.5686 29.3459 17.5686L29.6663 17.6915L29.9944 17.7328L30.0535 17.7402L29.6877 17.415C29.6841 17.4133 29.3189 17.168 29.3189 17.168C29.3146 17.166 29.0128 17.0633 29.0128 17.0633C29.0073 17.0622 28.5041 17.0227 28.494 17.0218C28.4983 17.0215 28.4989 17.0135 28.4989 17.0019C28.4989 16.9734 28.494 16.933 28.4913 16.9123L28.7291 16.8747C28.7291 16.8761 29.1099 16.9558 29.1099 16.9558C29.1099 16.9569 29.4704 17.1581 29.4704 17.1581L29.8601 17.2818C29.8714 17.2821 30.4291 17.2007 30.4291 17.2007L30.4624 17.1965L30.2926 16.9879C30.2831 16.9811 30.0027 16.9 30.0021 16.9C30.0021 16.8986 29.7707 16.7396 29.7707 16.7396L29.4257 16.5143C29.4208 16.5117 29.1634 16.4303 29.1634 16.4303C29.1591 16.4289 28.7533 16.3686 28.7521 16.3683C28.7521 16.3643 28.5525 16.1936 28.5482 16.1908C28.5543 16.1896 28.5669 16.1302 28.5715 16.1032L28.786 16.1589L29.0621 16.2812L29.4542 16.3968L29.3676 16.236L29.2152 16.0881L29.0817 15.9282L29.1396 15.9148C29.1396 15.9197 29.5567 16.1174 29.5567 16.1174L29.8818 16.2204C29.8818 16.2221 30.1328 16.4409 30.1328 16.4409C30.1365 16.4437 30.6115 16.6929 30.6115 16.6929L30.6592 16.718L30.5726 16.5023C30.5702 16.4975 30.3124 16.1911 30.3124 16.1911L30.0979 15.8462C30.096 15.8423 29.7076 15.475 29.7076 15.475C29.704 15.4716 29.2096 15.226 29.2084 15.226C29.2084 15.2241 29.0202 15.0258 29.0202 15.0258C28.905 14.9168 28.79 14.8077 28.6752 14.6983C28.6752 14.694 28.64 14.5819 28.622 14.525C28.6804 14.5424 28.9568 14.6277 28.9568 14.6277L29.3437 14.7293C29.3437 14.7302 29.6198 14.8901 29.6198 14.8901C29.6198 14.8918 29.85 15.1515 29.85 15.1515C29.8582 15.1575 30.2249 15.3009 30.2249 15.3009L31.1594 15.4135L31.2138 15.4198L30.9574 15.1689C30.9509 15.1643 30.4557 14.9598 30.4557 14.9598L30.1585 14.7583C30.1585 14.7546 29.9923 14.4775 29.9923 14.4775L29.819 14.1919C29.816 14.1876 29.5362 13.9427 29.5362 13.9427C29.5319 13.9398 29.1876 13.756 29.1876 13.756L28.8469 13.4926C28.8469 13.49 28.7649 13.3321 28.7126 13.2269L28.9492 13.4388L29.4013 13.8067C29.4068 13.8098 29.7517 13.9529 29.7517 13.9529L30.0471 14.1748L30.3902 14.5003C30.4021 14.5054 30.9384 14.5757 30.9384 14.5757L31.0054 14.5848L30.4609 14.1464C30.4609 14.1384 30.3379 13.7871 30.3379 13.7871C30.2437 13.7019 30.1486 13.6176 30.0526 13.5341L29.9044 13.3723C29.9044 13.368 29.7569 12.9501 29.7569 12.9501C29.6555 12.8519 29.5533 12.7545 29.4502 12.6579C29.4502 12.6556 28.9584 12.2291 28.9571 12.2274V12.2266C28.9571 12.22 28.9397 12.1549 28.9296 12.1119C28.9672 12.1296 29.0187 12.1549 29.0187 12.1549L29.4701 12.3993C29.4744 12.4013 30.0119 12.5441 30.0119 12.5441L30.5726 12.6676L31.2206 12.7637L31.0682 12.4772C31.0574 12.4681 30.7351 12.3461 30.7351 12.3461L30.4361 12.1839C30.433 12.1831 30.0679 12.0397 30.0679 12.0397L29.7462 11.9173C29.7462 11.9145 29.5375 11.6641 29.4211 11.5259C29.5329 11.5956 29.7052 11.7045 29.7052 11.7045C29.7135 11.7071 29.995 11.7279 29.995 11.7279L30.8781 11.7281C30.8781 11.7304 31.2356 11.9099 31.2356 11.9105C31.2356 11.9116 31.5404 12.2172 31.5404 12.2172L31.5805 12.2573L31.5435 11.9125C31.5398 11.9025 31.3461 11.6775 31.3461 11.6775C31.3406 11.6735 30.823 11.4078 30.823 11.4078L30.4116 11.2638C30.4086 11.263 29.7887 11.1611 29.7857 11.1611V11.1603C29.7857 11.1549 29.6672 11.0237 29.6672 11.0237C29.6648 11.0226 29.2136 10.6345 29.2136 10.6345C29.1407 10.5991 29.0676 10.5641 28.9942 10.5295C28.9942 10.5284 28.9253 10.4627 28.8824 10.4212H29.1145C29.1145 10.4246 29.4701 10.6231 29.4701 10.6231C29.4732 10.6251 29.9479 10.7674 29.9479 10.7674L30.5536 10.8496H30.553C30.553 10.8556 30.7777 11.0894 30.7777 11.0894L31.1052 11.2764C31.2294 11.2977 31.3538 11.3182 31.4783 11.3381L31.5303 11.3458L30.7639 10.4729C30.759 10.4687 30.3926 10.2852 30.3926 10.2852C30.3896 10.2835 29.9598 10.1608 29.9598 10.1608C29.9598 10.1566 29.5815 9.7577 29.5815 9.7577C29.5772 9.75344 29.1034 9.48857 29.1034 9.48857C28.9889 9.46163 28.8741 9.43564 28.7591 9.41061C28.7805 9.37847 28.8518 9.26922 28.8518 9.26865C28.8531 9.27178 29.2314 9.11275 29.2314 9.11275C29.2314 9.1136 29.786 9.01203 29.786 9.01203C29.801 9.00008 29.8429 8.8769 29.8429 8.8769C29.8359 8.85613 29.599 8.71331 29.599 8.71331C29.5045 8.68478 29.4098 8.65671 29.3149 8.6291C29.2975 8.63109 29.1475 8.71274 29.1475 8.71331C29.1475 8.71075 28.6835 8.73038 28.6835 8.73038C28.6835 8.7301 28.1289 8.6089 28.1289 8.60833C28.1289 8.60577 27.5574 8.16309 27.5574 8.16309C27.47 8.12123 27.3823 8.07969 27.2945 8.03848C27.2881 8.03734 26.3441 7.93464 26.3417 7.93464C26.3417 7.92354 26.1198 7.61572 26.1198 7.61572L25.8162 7.30732C25.8149 7.30561 25.4296 6.98242 25.4296 6.98242L25.4176 7.00604L25.2885 7.27176C25.2891 7.2692 25.1612 7.45298 25.1612 7.45298V7.45753C25.1612 7.49139 25.1792 7.66892 25.1792 7.66892C25.1847 7.68001 25.3096 7.79893 25.3124 7.80235C25.3059 7.80235 25.2652 7.98727 25.2652 7.98869C25.264 7.97589 24.7473 7.99552 24.7464 7.99552C24.7464 7.99324 24.3243 7.81316 24.3243 7.81316C24.3216 7.81145 23.9981 7.7096 23.9981 7.7096C23.9916 7.70761 23.239 7.72923 23.239 7.72923C23.2224 7.7372 23.0948 7.92098 23.0948 7.92098L23.0777 7.94516L23.4089 7.98955C23.4089 7.99068 23.4578 8.0197 23.4851 8.03592L23.4003 8.10022C23.4003 8.09623 22.9396 8.0766 22.9396 8.0766C22.932 8.07774 22.6078 8.19979 22.6078 8.19979L22.5742 8.21316L22.7349 8.31359C22.745 8.317 23.4333 8.3372 23.4333 8.3372L23.9445 8.45954V8.46011C23.9445 8.46665 24.0418 8.59581 24.0418 8.59581C24.0418 8.59581 24.111 8.68657 24.137 8.72213L23.9182 8.83422C23.9209 8.83394 23.2962 9.07889 23.2962 9.07889L22.0049 9.75287C22.0036 9.75173 21.1546 9.86951 21.1546 9.86951C21.1482 9.8715 20.8222 10.0402 20.8222 10.0402C20.8151 10.0448 20.5534 10.3819 20.5534 10.3819C20.5507 10.3862 20.4026 10.8058 20.4026 10.8058C20.3909 11.5187 20.4215 11.5352 20.4325 11.5409C20.458 11.5557 20.6796 11.6724 20.851 11.587C21.045 11.4889 21.4604 11.3924 21.6761 11.3498C21.7827 11.3296 21.8326 11.3651 21.8414 11.4018C21.8531 11.4419 21.8209 11.4966 21.7413 11.5168L21.6967 11.529C21.3214 11.6237 20.9385 11.7384 20.951 11.8729L21.0172 11.9757C21.1846 12.0892 21.6198 12.0354 21.8509 11.9867L22.0921 11.9239C22.3002 11.865 22.5368 11.7993 22.7388 11.8203C22.8555 11.8328 22.9583 11.8795 23.0798 11.9327C23.2445 12.0067 23.4327 12.0906 23.7134 12.1077C24.1814 12.1378 24.5009 12.2257 24.526 12.2513C24.5888 12.37 24.5484 12.5455 24.5169 12.6866L24.4927 12.8144C24.3617 13.9185 23.0354 15.1669 22.3963 15.7657C22.2237 15.9279 22.1096 16.0349 22.0851 16.0795L22.0116 16.2374C21.9495 16.384 21.899 16.5103 21.6963 16.5859C21.5791 16.6283 21.3058 16.8195 20.9887 17.0403C20.5308 17.3578 19.963 17.7527 19.8066 17.7356C19.5449 17.7069 18.3228 16.9248 18.2713 16.8767C17.081 15.8061 16.583 16.0258 16.2849 16.1566L16.2377 16.1771C15.8827 16.3273 15.5099 17.2622 15.4762 17.4628L15.3324 18.0386L15.2219 18.4616C15.1891 18.6047 15.0425 18.9564 14.9026 19.2961L14.6155 20.0358C14.5681 20.207 14.453 20.4477 14.3593 20.6423L14.2323 20.9305C14.1439 21.2688 14.1423 23.1214 14.2963 23.2853L14.303 23.2921L14.3333 23.3004C14.4879 23.2856 14.8197 22.9678 14.9788 22.8145L15.0156 22.7789C15.1502 22.6532 15.2932 22.3174 15.2932 22.1763C15.2932 22.0381 15.2237 21.749 15.1962 21.6702C14.9807 21.0585 15.0621 20.4756 15.1013 20.1962L15.1169 20.0716C15.1282 19.9419 15.2681 19.7982 15.404 19.6605L15.5757 19.4759C15.67 19.3592 15.7747 19.3205 15.868 19.2861L16.0213 19.2048L16.0452 19.1817C16.1468 19.087 16.3173 18.9271 16.392 18.7131L16.5377 18.1274L16.5695 17.9709C16.5769 17.9396 16.594 17.9222 16.6225 17.9165C16.6803 17.9046 16.767 17.9473 16.804 17.9931L17.8575 19.1294C18.1275 19.343 18.4048 19.5979 18.4048 19.654L18.4045 19.6588C18.4045 19.658 18.398 19.6591 18.398 19.6591C18.2505 19.6733 17.5083 19.5262 17.3849 19.4935C16.3764 19.2187 15.9161 19.2671 15.561 19.6801C15.1564 20.1533 15.2837 21.6022 15.3663 21.761C15.4422 21.9049 15.8114 23.6702 15.8279 23.9055C15.8444 24.1362 15.9405 24.5488 16.0409 24.6435L16.0685 24.6697C16.1928 24.784 16.5203 25.0899 16.5781 25.3915C16.6405 25.7198 17.3907 26.5989 17.6769 26.6777C17.6984 26.6834 17.721 26.6844 17.7429 26.6804C17.7649 26.6765 17.7855 26.6677 17.803 26.6549C18.0213 26.511 18.1204 25.8074 18.1324 25.5104C18.1464 25.1402 18.0035 24.9613 17.8517 24.7698L17.7935 24.695C17.6818 24.5533 17.485 24.5018 17.3552 24.468C17.2998 24.4535 17.2239 24.4364 17.2239 24.4205C17.2239 24.4151 17.2086 23.8728 17.0225 23.7681C16.8778 23.6853 16.7296 23.1621 16.7122 22.963C16.6953 22.7652 16.613 22.2879 16.5025 22.0782C16.3908 21.8677 16.2968 21.4796 16.3446 21.1803C16.3645 21.0517 16.463 21.0113 16.5432 20.9997C16.6816 20.9792 16.8413 21.0346 16.8661 21.0796C16.9212 21.1826 17.9848 21.7789 18.3436 21.9069C18.5664 21.9854 18.8679 22.2221 19.1342 22.4332C19.3236 22.5809 19.4865 22.7081 19.5881 22.7533C19.7252 22.8148 20.1139 22.8219 20.4261 22.8276C20.5917 22.8301 20.7637 22.8338 20.787 22.8466C20.6603 22.8938 20.6618 23.1004 20.6722 23.167C20.8017 24.0213 24.1456 26.3681 24.4042 26.4999C24.7036 26.6492 25.7773 27.6913 25.8713 27.833C25.9686 27.973 26.0632 28.1252 26.0451 28.2424C26.0194 28.4157 26.0941 28.6137 26.2434 28.7753C26.3864 28.9258 26.5728 29.0165 26.7451 29.0165C26.8945 29.0165 26.9943 28.8919 27.068 28.802L27.0836 28.7832C27.2832 28.5377 27.5792 28.1781 27.6174 27.6157C27.6581 27.039 27.9416 26.81 28.034 26.7949C28.0753 26.7878 28.1056 26.7994 28.1166 26.8248C28.128 26.8509 28.1142 26.8947 28.0582 26.9292C27.9357 27.0063 27.8592 27.2615 27.7754 27.5343C27.7748 27.5366 27.7441 27.8128 27.7441 27.8128C27.7371 28.0191 27.7285 28.2529 27.5069 28.4797C27.1751 28.8137 26.7944 29.5838 26.6958 30.5562C26.6361 31.142 26.9199 31.9858 27.5388 33.0612L27.5819 33.1381L27.7493 33.3992C27.9186 33.6521 28.2014 34.0726 28.1883 34.1711C28.1702 34.3099 28.1561 34.4189 27.8984 34.7196C27.615 35.0502 26.5807 36.1688 26.4797 36.1865C26.2741 36.1865 26.2395 36.2109 26.0739 36.3276L25.8994 36.451C25.7084 36.5771 25.6751 36.6715 25.6429 36.7549C25.6193 36.8178 25.597 36.8727 25.5082 36.9344L25.4418 36.9759C25.4281 36.987 25.3907 37.036 24.9751 37.4226C24.4985 37.8604 24.2858 38.356 24.3592 38.8485C24.3828 39.0024 24.5254 39.0562 24.9484 39.0741C25.3708 39.0923 26.3392 38.4624 26.3824 38.2573L26.3974 38.1791C26.4344 37.9942 26.4966 37.6823 26.6061 37.6374C26.7384 37.5836 26.9649 37.3407 27.1311 37.164L27.1632 37.1307C27.2517 37.0357 27.2731 36.9412 27.2942 36.8513C27.3123 36.7802 27.3288 36.7085 27.379 36.6431C27.4185 36.5953 27.4763 36.5691 27.5434 36.5404C27.6719 36.4832 27.8338 36.4104 27.9504 36.1381C28.0664 35.8712 28.7588 35.4095 29.2644 35.0735C29.5228 34.9028 29.7254 34.7662 29.7737 34.7062C29.8402 34.6257 29.8809 34.4706 29.8809 34.3062C29.8809 34.111 29.8246 33.9034 29.6926 33.7878C29.5007 33.6223 29.3201 33.1295 29.2663 32.975V32.9716C29.2663 32.9076 29.2598 32.7904 29.2494 32.5722C29.2482 32.5622 29.2482 32.5517 29.2482 32.5423C29.2482 31.9651 30.1713 31.4003 30.5699 31.1571L30.7517 31.0405C32.1967 29.8558 32.4795 28.9551 32.533 28.7078L32.5624 28.4117C32.5713 28.2066 32.5787 28.0111 32.7118 27.9855C32.7638 27.9761 32.8504 28.0151 32.9031 28.0734C32.9331 28.105 32.9772 28.1707 32.9478 28.2467C32.882 28.4128 32.8599 30.0831 32.8593 30.1525C32.8642 30.1642 33.0148 30.3292 33.0148 30.3292L33.0424 30.3591L33.0506 30.3201C33.0525 30.3008 33.1354 29.8456 33.1354 29.6845C33.1354 29.5044 33.447 28.7332 33.5223 28.7198C33.5223 28.7221 33.5272 28.7286 33.5272 28.7286C33.5636 28.8353 33.6101 29.0988 33.6101 29.3764C33.6101 29.6493 33.5658 29.936 33.4231 30.1022C33.2067 30.3511 33.0344 30.7451 32.9221 31.0052L32.818 31.2262C32.8063 31.2569 32.8012 31.2893 32.803 31.3218C32.803 31.5335 32.9202 31.9847 32.9974 32.0686C33.0176 32.0885 33.0338 32.0885 33.0451 32.0848C33.0702 32.076 33.0929 32.0459 33.0929 31.8686C33.0929 31.1935 33.7032 30.7039 33.7105 30.7002C34.2486 30.3033 34.3658 29.5673 34.3658 29.0066C34.3658 28.5821 34.2988 28.2581 34.297 28.2492C34.2119 28.1319 34.1258 28.0153 34.0386 27.8993C34.0512 27.905 34.1213 27.8515 34.1445 27.8342C34.1678 27.862 34.413 28.1642 34.413 28.1642C34.4543 28.2179 34.559 28.3747 34.559 28.437C34.559 28.7844 34.6165 29.0222 34.6575 29.1966L34.6676 29.2379C34.7108 29.4228 34.9798 30.0137 34.9918 30.039L35.0205 30.1013L35.0294 30.0336C35.0294 30.0308 35.072 29.7218 35.0294 29.4575C35.0049 29.3093 35.0355 29.1275 35.0665 28.9312L35.1154 28.4805C35.1154 28.1144 35.0591 27.8831 34.9186 27.6726L34.847 27.5716C34.8188 27.5303 34.7913 27.4899 34.7944 27.4817L34.847 27.4606C35.9835 27.1021 36.5124 26.3243 36.7278 25.8936C36.9537 25.4373 36.9657 24.7345 36.9657 24.5994C36.9657 24.4233 36.9574 23.5101 36.7924 23.0409C36.6957 22.7641 36.7266 22.4668 36.7591 22.1459L36.7943 21.5965C36.7943 21.2207 37.007 20.9416 37.2133 20.6719L37.4591 20.318C37.6198 20.0233 37.5344 19.7652 37.4698 19.6915Z" fill="black"></path>
    <path fill-rule="evenodd" clip-rule="evenodd" d="M24.7499 7.92619C24.7688 7.92733 25.0103 7.82064 25.0103 7.82064C25.0211 7.80044 24.965 7.58792 24.965 7.58792C24.7907 7.39576 24.6156 7.20429 24.4395 7.01352L24.4135 6.98535L24.4046 7.02063L24.3483 7.25079C24.3486 7.24851 24.1815 7.62007 24.1815 7.62007L24.1738 7.63571L24.5258 7.803L24.7499 7.92619Z" fill="black"></path>
    <path fill-rule="evenodd" clip-rule="evenodd" d="M24.8541 9.40315C24.9099 9.42249 24.994 9.41396 25.0736 9.38096C25.1954 9.32776 25.2674 9.23672 25.2364 9.17157L25.1804 9.12462C25.1253 9.10499 25.0412 9.11381 24.9628 9.14738C24.8584 9.19063 24.7917 9.26261 24.7917 9.32377C24.7917 9.33487 24.7951 9.34682 24.7991 9.35621L24.8541 9.40315ZM26.9566 8.59659L27.057 8.64695C27.065 8.6631 27.0769 8.67737 27.0917 8.6887C27.1065 8.70002 27.1238 8.70812 27.1424 8.71239C27.1638 8.71654 27.1859 8.71614 27.2071 8.71121C27.2283 8.70629 27.248 8.69696 27.2648 8.68394C27.2918 8.66431 27.2982 8.6276 27.281 8.58123C27.2541 8.50413 27.1675 8.41992 27.0741 8.41992C26.9538 8.41992 26.844 8.43272 26.844 8.51523C26.8443 8.5616 26.9015 8.57924 26.9566 8.59659ZM27.0769 8.92633C27.0304 8.95819 27.0099 9.00115 27.023 9.04468L27.0325 9.08081C27.0444 9.12349 27.0487 9.13231 27.091 9.13686L27.1675 9.14966C27.2654 9.17299 27.4203 9.11637 27.4555 9.04354C27.4674 9.01993 27.4769 8.97412 27.4102 8.93088C27.2954 8.85976 27.154 8.87512 27.0769 8.92633ZM27.39 10.1926C27.3618 10.1801 27.3738 10.1386 27.3955 10.0783C27.413 10.029 27.4289 9.98182 27.4016 9.95593C27.3778 9.93459 27.3352 9.9363 27.263 9.96133C27.0028 10.0484 26.963 10.2948 26.9343 10.4749L26.9254 10.5303C26.9104 10.6106 26.9548 10.6379 26.9823 10.647C27.072 10.6766 27.2339 10.6009 27.2703 10.5431C27.311 10.4808 27.5357 10.4239 27.6994 10.3824L27.7622 10.3665C27.8381 10.3471 27.877 10.3201 27.8825 10.2834C27.8907 10.2353 27.8335 10.1915 27.7827 10.1633C27.7356 10.1374 27.6655 10.1559 27.592 10.1756C27.5192 10.1941 27.4408 10.2131 27.39 10.1926ZM24.6402 10.2851C24.6977 10.2797 24.7427 10.2589 24.7712 10.2208C24.8541 10.1059 24.8584 9.94313 24.7779 9.79547C24.7002 9.65464 24.567 9.56446 24.4311 9.55991L24.433 9.56048L24.4033 9.55678L24.1529 9.57498C24.0207 9.6023 23.898 9.69305 23.8683 9.78238C23.8533 9.82762 23.8618 9.86887 23.8952 9.89988C24.096 10.0976 24.4428 10.299 24.6402 10.2851ZM22.1747 10.0979C22.2047 10.1665 22.3422 10.1741 22.5439 10.1184L22.5882 10.1059L22.9497 9.97442L23.4734 9.65436C23.4887 9.64326 23.6255 9.54767 23.5974 9.48651C23.5775 9.44639 23.5092 9.4535 23.46 9.46204C23.3155 9.48651 23.1738 9.55109 23.0229 9.61937L22.8098 9.71126L22.7159 9.74711C22.3917 9.87172 22.1261 9.98352 22.1747 10.0979ZM21.0735 10.4541C20.9645 10.4541 20.9155 10.509 20.8757 10.5576L20.8271 10.6089C20.7432 10.6757 20.7175 10.8373 20.7279 10.9602C20.7322 11.0114 20.7478 11.1042 20.802 11.1338C20.9057 11.1932 20.9553 11.1514 21.0612 11.0578L21.1433 10.9924C21.2473 10.9113 21.3682 10.8194 21.3832 10.678C21.3906 10.6182 21.3753 10.569 21.3394 10.532C21.2758 10.4677 21.1595 10.4541 21.0735 10.4541ZM21.6758 10.4988C21.6446 10.4925 21.6259 10.5016 21.6161 10.511C21.5846 10.5397 21.5975 10.6012 21.6073 10.6504L21.6134 10.6848L21.607 10.7056C21.5999 10.7232 21.592 10.7457 21.607 10.7648C21.6204 10.7838 21.6532 10.7921 21.7089 10.7921C21.7796 10.7926 21.7866 10.7858 21.8105 10.7272L21.8295 10.682C21.8466 10.6421 21.8469 10.6063 21.8307 10.5778C21.8016 10.5278 21.7294 10.5087 21.6758 10.4988ZM22.2583 11.3761C22.2953 11.3746 22.3301 11.3598 22.3557 11.3349C22.3813 11.31 22.3955 11.277 22.3955 11.2426C22.3955 11.2082 22.3813 11.1751 22.3557 11.1502C22.3301 11.1254 22.2953 11.1106 22.2583 11.109C22.2396 11.1091 22.2211 11.1127 22.2039 11.1194C22.1867 11.1262 22.1711 11.1361 22.158 11.1485C22.1449 11.1609 22.1346 11.1756 22.1277 11.1917C22.1207 11.2078 22.1173 11.2251 22.1175 11.2424C22.1175 11.3161 22.1802 11.3761 22.2583 11.3761ZM24.8823 11.0507C24.8621 11.0472 24.8412 11.0489 24.822 11.0556C24.8027 11.0623 24.7858 11.0738 24.773 11.0888C24.7342 11.1309 24.4976 11.2817 24.3246 11.3921L24.1015 11.5394L24.0834 11.5557C24.0556 11.5801 24.0418 11.5952 24.0599 11.6458L24.0871 11.6814L24.1459 11.6703L24.2328 11.6404L24.358 11.6222C24.4813 11.6074 24.6163 11.5904 24.68 11.5298L24.7629 11.4037L24.8863 11.2197C24.9454 11.1591 24.9484 11.1175 24.9402 11.0939C24.9354 11.0827 24.9275 11.0728 24.9174 11.0652C24.9072 11.0576 24.8952 11.0526 24.8823 11.0507ZM25.1416 11.7944C25.1416 11.8624 25.178 11.8891 25.1985 11.8985C25.2539 11.9258 25.3335 11.8993 25.3809 11.8379L25.5413 11.7082C25.6282 11.6501 25.7252 11.5847 25.8113 11.4831C25.8908 11.3878 25.8566 11.3292 25.8281 11.3042C25.7736 11.2547 25.6616 11.2433 25.6236 11.2723L25.5774 11.3016C25.4724 11.365 25.2239 11.515 25.1614 11.6973C25.1491 11.7284 25.1424 11.7612 25.1416 11.7944ZM26.1865 11.721C26.1538 11.6766 26.0974 11.6581 26.0555 11.6771L25.9426 11.7568C25.863 11.8171 25.7638 11.8936 25.6778 11.9161C25.4691 11.9682 25.1859 12.055 25.1685 12.1881L25.1682 12.2055C25.1682 12.2422 25.1859 12.2641 25.2031 12.2763C25.2823 12.3363 25.4749 12.3008 25.6141 12.2518C25.8278 12.1784 25.9576 12.0888 26.1253 11.9471C26.2284 11.8598 26.2238 11.7725 26.1865 11.721ZM25.3748 13.2544L25.3068 13.2473C25.1311 13.2908 24.8312 13.771 24.6206 14.1289L24.583 14.191L23.9518 15.292L23.7538 15.6425C23.7318 15.6743 23.7394 15.721 23.7725 15.7514C23.8031 15.7799 23.8566 15.7955 23.9215 15.7574C24.0268 15.6923 24.4109 15.3381 24.5891 15.0598L24.8263 14.7557C24.9784 14.5711 25.1517 14.3645 25.2533 14.1184L25.2891 14.0336C25.53 13.453 25.5676 13.3642 25.3748 13.2544ZM27.7481 11.138C27.7301 11.1376 27.7123 11.1406 27.6955 11.1466C27.6788 11.1526 27.6635 11.1617 27.6505 11.1732C27.6375 11.1848 27.6271 11.1986 27.6198 11.2139C27.6126 11.2292 27.6086 11.2456 27.6082 11.2623C27.6082 11.3309 27.671 11.3867 27.7481 11.3867C27.8252 11.3867 27.8868 11.3309 27.8868 11.2623C27.8865 11.2457 27.8827 11.2293 27.8756 11.214C27.8684 11.1988 27.8581 11.185 27.8452 11.1734C27.8324 11.1618 27.8171 11.1528 27.8005 11.1467C27.7838 11.1406 27.766 11.1377 27.7481 11.138ZM27.6817 11.6567C27.6817 11.7255 27.7444 11.7813 27.8216 11.7813C27.8394 11.7815 27.857 11.7784 27.8735 11.7722C27.89 11.7661 27.9051 11.7569 27.9178 11.7453C27.9305 11.7338 27.9406 11.72 27.9476 11.7048C27.9546 11.6895 27.9582 11.6732 27.9584 11.6567C27.958 11.6233 27.9434 11.5914 27.9177 11.5681C27.8921 11.5447 27.8575 11.5317 27.8216 11.532C27.7853 11.5315 27.7503 11.5443 27.7241 11.5676C27.6979 11.591 27.6827 11.623 27.6817 11.6567ZM27.8102 11.9323C27.723 11.9323 27.6508 11.9861 27.6508 12.0504C27.6508 12.1156 27.723 12.1688 27.8102 12.1688C27.8987 12.1688 27.9703 12.1158 27.9703 12.0504C27.9706 11.9861 27.8987 11.9323 27.8102 11.9323ZM27.8038 12.2771C27.7034 12.2771 27.6232 12.336 27.6232 12.4086C27.6232 12.4806 27.7034 12.5395 27.8038 12.5395C27.9042 12.5395 27.9832 12.4803 27.9832 12.4086C27.9832 12.336 27.9042 12.2771 27.8038 12.2771ZM27.8102 12.7147C27.6998 12.7147 27.6082 12.7759 27.6082 12.853C27.6082 12.9289 27.6998 12.9901 27.8102 12.9901C27.9214 12.9901 28.011 12.9289 28.011 12.853C28.011 12.7759 27.9214 12.7147 27.8102 12.7147ZM27.742 13.4481C27.8675 13.4379 27.9596 13.3739 27.9526 13.2999L27.9131 13.2328C27.8699 13.1989 27.7946 13.1819 27.7181 13.1884C27.5969 13.1986 27.5072 13.2595 27.5072 13.3292L27.5078 13.3363L27.5486 13.4032C27.5926 13.4379 27.6646 13.455 27.742 13.4481ZM27.735 13.9087C27.8754 13.8894 27.9746 13.8177 27.9633 13.7437L27.922 13.6823C27.873 13.6473 27.7852 13.6334 27.6955 13.6456C27.5574 13.6635 27.4558 13.7366 27.4671 13.8106L27.5097 13.8718C27.5593 13.907 27.6453 13.9204 27.735 13.9087ZM27.4984 14.1309C27.4984 14.2115 27.6036 14.2758 27.7417 14.2758C27.8791 14.2758 27.9832 14.2115 27.9832 14.1309C27.9832 14.0504 27.8791 13.987 27.7417 13.987C27.6033 13.9873 27.4984 14.0504 27.4984 14.1309ZM27.9287 14.6018C27.9287 14.5164 27.8032 14.4513 27.6428 14.4513C27.4843 14.4513 27.3588 14.5164 27.3588 14.6018C27.3588 14.6866 27.4843 14.7529 27.6428 14.7529C27.8032 14.7529 27.9287 14.6866 27.9287 14.6018ZM27.7463 14.9992C27.7463 14.9159 27.6523 14.8484 27.5388 14.8484C27.4234 14.8484 27.3294 14.9159 27.3294 14.9992C27.3294 15.0826 27.4234 15.1503 27.5388 15.1503C27.6526 15.1503 27.7463 15.0826 27.7463 14.9992ZM27.6483 15.4962C27.6483 15.4026 27.5492 15.3255 27.4258 15.3255C27.304 15.3255 27.2051 15.4026 27.2051 15.4962C27.2051 15.5907 27.3037 15.6667 27.4258 15.6667C27.5492 15.6667 27.6483 15.5907 27.6483 15.4962ZM27.4677 15.9799C27.4677 15.8957 27.3863 15.8288 27.2872 15.8288C27.1886 15.8288 27.1054 15.8954 27.1054 15.9799C27.1054 16.0627 27.1883 16.1304 27.2872 16.1304C27.3863 16.1307 27.4677 16.0627 27.4677 15.9799ZM27.1549 16.2661C27.0594 16.2661 26.9805 16.3335 26.9805 16.4172C26.9805 16.5 27.0594 16.5674 27.1549 16.5674C27.2501 16.5674 27.3282 16.4997 27.3282 16.4172C27.3285 16.3335 27.2501 16.2661 27.1549 16.2661ZM27.0074 16.9919C27.1054 16.9919 27.1886 16.9332 27.1886 16.8607C27.1886 16.7882 27.1057 16.7304 27.0074 16.7304C26.9088 16.7304 26.828 16.7884 26.828 16.8607C26.828 16.933 26.9088 16.9919 27.0074 16.9919ZM26.8412 17.3096C26.9321 17.3096 27.0068 17.2604 27.0068 17.1984C27.0068 17.1367 26.9333 17.0877 26.8412 17.0877C26.746 17.0877 26.6738 17.1364 26.6738 17.1984C26.6738 17.2604 26.7485 17.3096 26.8412 17.3096ZM26.6799 17.6152C26.7665 17.6152 26.84 17.5654 26.84 17.5037C26.84 17.4425 26.7665 17.3927 26.6799 17.3927C26.5908 17.3927 26.5204 17.4425 26.5204 17.5037C26.5201 17.5654 26.5908 17.6152 26.6799 17.6152ZM21.9608 17.3446L21.9896 17.3498L22.2075 17.3133C22.4009 17.2735 22.6923 17.2129 23.0507 17.2041C23.3127 17.1975 23.5968 17.2826 23.8031 17.3452C23.9904 17.4032 24.0837 17.4283 24.1193 17.3924C24.1416 17.3688 24.1278 17.3344 24.1156 17.3102C24.0593 17.1973 23.8126 16.826 23.0076 16.8089C22.4845 16.7978 22.0581 17.1284 21.9669 17.2681C21.9489 17.2966 21.944 17.3176 21.9531 17.3333L21.9608 17.3446ZM24.9542 18.7512C25.0053 18.7208 25.0274 18.667 25.024 18.5899C25.0069 18.2872 24.9196 18.2528 24.74 18.2528C24.5579 18.2528 24.4262 18.4226 24.4262 18.5108C24.4262 18.5936 24.4917 18.6661 24.6188 18.7253C24.6907 18.7606 24.8563 18.8109 24.9542 18.7512ZM27.424 22.4517C27.6835 22.5643 27.7747 22.6044 27.8136 22.6155C27.8148 22.6155 27.8161 22.6189 27.8161 22.6189C27.8161 22.6189 27.8179 22.6175 27.8179 22.617C27.836 22.6221 27.8418 22.6201 27.8461 22.6144C27.8436 22.6127 27.8335 22.5985 27.828 22.5945C27.8311 22.5922 27.8341 22.5862 27.8341 22.5862C27.8341 22.5862 27.8179 22.58 27.8167 22.5785C27.645 22.3771 26.611 21.0107 26.391 20.1114C26.3564 19.9632 26.3157 19.8252 26.2116 19.77C26.1531 19.7395 26.0794 19.7373 25.9897 19.7651H25.9891C25.9683 19.7708 25.9533 19.7868 25.9438 19.8101C25.9349 19.8354 25.9311 19.862 25.9325 19.8886C25.9325 20.2098 26.3007 21.094 26.421 21.2758C27.0864 22.2798 27.4114 22.4448 27.424 22.4517ZM35.8754 22.8423L35.8359 22.8494C35.8371 22.8551 35.846 23.1234 35.846 23.4679C35.846 23.9703 35.8274 24.6403 35.7337 24.9413C35.6578 25.1851 35.3098 25.652 35.0288 26.0255C35.0288 26.0255 34.7019 26.4813 34.7019 26.4819C34.6926 26.4971 34.6878 26.5144 34.6881 26.5319C34.6881 26.5769 34.7126 26.6193 34.7558 26.6457C34.7885 26.6668 34.907 26.7208 35.072 26.5379L35.2807 26.3328C35.5592 26.0745 35.9054 25.7538 36.1493 25.046C36.4169 24.269 35.88 22.8557 35.8754 22.8423ZM27.1678 25.3737C27.1929 25.3971 27.2336 25.4036 27.2761 25.3894C27.3089 25.3789 27.3377 25.3597 27.3589 25.3342C27.3802 25.3088 27.393 25.2781 27.3958 25.246C27.4059 25.1487 27.4788 25.0181 27.5871 24.9066C27.6436 24.8469 27.673 24.7693 27.6691 24.6899C27.6652 24.6105 27.6284 24.5356 27.5663 24.481L27.4277 24.4295C27.3386 24.4323 27.2722 24.4986 27.2685 24.5006C27.222 24.7073 27.1766 24.9143 27.1323 25.1214V25.1208C27.1191 25.1553 27.1072 25.3197 27.1678 25.3737ZM31.6763 27.6651L31.6693 27.6622L31.6622 27.6651C31.6567 27.6691 31.5404 27.7194 31.5074 27.825C31.4847 27.8961 31.527 27.9578 31.56 28.0088L31.5989 28.0765L31.6157 28.2116L31.642 28.4105C31.6486 28.431 31.6624 28.4489 31.6813 28.4612C31.7002 28.4735 31.7231 28.4795 31.7461 28.4782C31.8006 28.4765 31.8639 28.4375 31.8848 28.3587C31.9129 28.252 31.9267 28.1075 31.9267 27.9152C31.9261 27.7396 31.687 27.6674 31.6763 27.6651ZM24.6788 26.0472C24.6632 26.0304 23.0103 24.3632 22.6531 23.9265C22.2892 23.479 22.1154 23.4451 21.9372 23.5367C21.9241 23.5437 21.913 23.5535 21.9048 23.5654C21.8967 23.5772 21.8917 23.5907 21.8904 23.6047C21.8647 23.7865 22.2776 24.2264 22.6391 24.5493C23.1444 25.0013 24.6371 26.0639 24.6524 26.0745L24.6788 26.0472ZM18.2006 21.1268C17.8658 20.9336 17.2861 20.8263 17.2802 20.824L17.2649 20.8568L17.908 21.3074C18.0139 21.3882 18.4819 21.6582 18.6331 21.5478C18.6429 21.5409 18.6507 21.532 18.656 21.5217C18.6612 21.5114 18.6636 21.5 18.6631 21.4886C18.6582 21.4076 18.496 21.2992 18.2006 21.1268ZM18.0436 18.5762L18.0889 18.5583C18.1467 18.4977 18.0136 18.3256 17.8517 18.1865C17.7057 18.0613 17.5572 17.9805 17.4795 17.9845L17.4354 18.0021C17.426 18.0128 17.4212 18.0264 17.422 18.0402C17.422 18.1188 17.5377 18.2576 17.672 18.3742C17.8183 18.4994 17.968 18.5808 18.0436 18.5762ZM19.7619 18.3586L19.6961 18.3623C19.5712 18.4109 19.3729 18.706 19.2147 19.0795C19.1032 19.3432 19.0191 19.6309 19.0191 19.8041C19.0191 19.8863 19.038 19.9421 19.0803 19.9586L19.1452 19.9549C19.2701 19.9054 19.4678 19.6098 19.6279 19.2374C19.739 18.9731 19.8222 18.6855 19.8222 18.5119C19.8222 18.4303 19.8042 18.3742 19.7619 18.3586ZM16.6687 16.5367C16.5074 16.5367 16.3788 16.6078 16.3788 16.6977C16.3788 16.787 16.5074 16.8573 16.6687 16.8573C16.8324 16.8573 16.9598 16.787 16.9598 16.6977C16.9598 16.6078 16.8324 16.5367 16.6687 16.5367ZM15.64 18.5273L15.6902 18.523C15.7774 18.4832 15.9093 18.2627 16.0088 17.9876C16.1141 17.6949 16.1716 17.3805 16.0697 17.3469L16.0204 17.3517C15.9317 17.3924 15.8 17.6123 15.7015 17.8872C15.5944 18.1802 15.5402 18.4946 15.64 18.5273ZM15.9093 20.0417C15.995 19.935 16.0122 19.8149 15.9485 19.77L15.8744 19.7552C15.8126 19.7626 15.7388 19.8109 15.6837 19.8824C15.598 19.989 15.5809 20.1088 15.6443 20.1529L15.7186 20.1691C15.7801 20.1603 15.8548 20.1125 15.9093 20.0417ZM15.8108 21.7003L15.8037 21.6963L15.7716 21.6932C15.6559 21.7182 15.7373 22.1865 15.797 22.4329C15.8818 22.7768 15.9965 23.0545 16.0761 23.1006L16.0829 23.1052L16.1144 23.1083C16.2319 23.0832 16.1487 22.6127 16.0893 22.3686C16.0051 22.0226 15.8916 21.7467 15.8108 21.7003ZM14.6452 22.329C14.5519 22.329 14.4766 22.3933 14.4766 22.4736C14.4766 22.5498 14.5519 22.6141 14.6452 22.6141C14.738 22.6141 14.8157 22.5498 14.8157 22.4736C14.816 22.3933 14.7383 22.329 14.6452 22.329ZM17.5089 25.7282C17.4572 25.728 17.4076 25.7467 17.3707 25.7804C17.3339 25.814 17.3128 25.8598 17.3121 25.9077C17.3121 26.0045 17.4005 26.0844 17.5089 26.0844C17.5603 26.0853 17.6099 26.0671 17.647 26.034C17.684 26.0009 17.7055 25.9555 17.7066 25.9077C17.7059 25.8596 17.6847 25.8137 17.6476 25.78C17.6106 25.7464 17.5607 25.7278 17.5089 25.7282ZM27.1898 30.464C27.196 30.4728 27.2137 30.5024 27.2406 30.4996L27.252 30.499L27.2728 30.47L27.4503 29.967L27.589 29.6318L27.7074 29.3769C27.7438 29.2913 27.7438 29.2341 27.708 29.2008C27.6511 29.1525 27.5336 29.1937 27.5192 29.1985C27.5097 29.2057 27.1855 29.7086 27.1855 29.7086C27.1222 29.7985 27.0983 29.9197 27.0983 30.0444C27.0983 30.2219 27.1461 30.3991 27.1898 30.464ZM27.9997 32.9767L28.0061 32.926C28.0104 32.8962 28.1078 32.1966 27.8764 31.9263C27.8527 31.897 27.8228 31.8726 27.7884 31.8548C27.754 31.8369 27.716 31.8259 27.6768 31.8225C27.6073 31.8165 27.5596 31.8353 27.5332 31.876C27.3921 32.0905 27.9458 32.8984 27.9703 32.9334L27.9997 32.9767ZM29.296 34.3076C29.2695 34.3073 29.2433 34.3118 29.2188 34.3209C29.1943 34.3301 29.1719 34.3436 29.153 34.3608C29.1342 34.378 29.1191 34.3985 29.1088 34.4211C29.0984 34.4437 29.093 34.4679 29.0927 34.4925C29.0927 34.5963 29.1836 34.6768 29.296 34.6768C29.3486 34.6768 29.3992 34.6574 29.4364 34.6228C29.4737 34.5881 29.4946 34.5412 29.4946 34.4922C29.4946 34.4432 29.4737 34.3963 29.4364 34.3616C29.3992 34.327 29.3486 34.3076 29.296 34.3076ZM26.244 32.0543C26.1489 32.0543 26.0677 32.1232 26.0677 32.2082C26.0677 32.2956 26.1492 32.3627 26.244 32.3627C26.3414 32.3627 26.4197 32.2956 26.4197 32.2082C26.4197 32.1232 26.3414 32.0543 26.244 32.0543ZM28.468 34.7827L28.4466 34.7781C28.3413 34.7781 27.9428 35.1022 27.603 35.4254C27.573 35.4549 26.8354 36.1582 26.933 36.2498L26.9385 36.2555L26.9624 36.2601C27.0689 36.2601 27.4668 35.9349 27.8047 35.6134C27.8366 35.5835 28.5754 34.8828 28.4747 34.7878L28.468 34.7827ZM26.2529 36.684C26.1914 36.684 26.095 36.7375 26.009 36.8174C25.9061 36.913 25.8315 37.0453 25.8865 37.0996L25.941 37.1178C26.0038 37.1178 26.1005 37.0655 26.1862 36.9838C26.2866 36.8871 26.3637 36.7577 26.3065 36.7028L26.2529 36.684ZM25.2811 37.9856C25.2055 37.9856 25.0987 38.0433 25.0053 38.1312C24.9077 38.2223 24.8517 38.323 24.8517 38.393C24.8517 38.4197 24.8593 38.4413 24.8774 38.4564L24.9463 38.4809C25.0207 38.4809 25.1305 38.4248 25.2221 38.3363C25.3576 38.2075 25.4121 38.0695 25.3506 38.0097L25.2811 37.9856ZM20.2005 31.4299C20.0548 31.4299 19.9364 31.507 19.9364 31.6043C19.9364 31.701 20.0551 31.7755 20.2005 31.7755C20.3475 31.7755 20.4647 31.701 20.4647 31.6043C20.465 31.507 20.3475 31.4299 20.2005 31.4299ZM22.3523 31.5698C22.2488 31.5698 22.1683 31.6216 22.1683 31.6899C22.1683 31.7539 22.2488 31.8065 22.3523 31.8065C22.452 31.8065 22.5347 31.7536 22.5347 31.6899C22.5347 31.623 22.452 31.5698 22.3523 31.5698ZM24.9784 32.3866L24.9943 32.3639C25.024 32.2489 24.4045 32.0694 24.0733 31.9915C23.6757 31.897 23.2032 31.8213 23.0988 31.8797L23.0914 31.8842L23.0746 31.9081C23.0446 32.0242 23.6638 32.2014 23.9956 32.2819C24.3929 32.3747 24.8655 32.4481 24.9714 32.3903L24.9784 32.3866Z" fill="white"></path>
  </g>
</svg>
