<?xml version="1.0" encoding="UTF-8"?>
<svg xmlns="http://www.w3.org/2000/svg" width="50" height="51" viewBox="0 0 50 51" fill="none">
  <mask id="mask0_3316_2" style="mask-type:alpha" maskUnits="userSpaceOnUse" x="0" y="0" width="50" height="51">
    <rect y="0.544922" width="50" height="50" fill="#D9D9D9"></rect>
  </mask>
  <g mask="url(#mask0_3316_2)">
    <path fill-rule="evenodd" clip-rule="evenodd" d="M12.3263 34.169C12.3263 36.7863 10.3604 38.9002 7.93336 38.9002C5.50601 38.9002 3.54297 36.7863 3.54297 34.169C3.54297 31.5565 5.50601 29.4404 7.93336 29.4404C10.3604 29.4404 12.3263 31.5562 12.3263 34.169ZM46.6341 34.169C46.6341 36.7863 44.6653 38.9002 42.2411 38.9002C39.8141 38.9002 37.8453 36.7863 37.8453 34.169C37.8453 31.5565 39.8141 29.4404 42.2411 29.4404C44.6653 29.4404 46.6341 31.5562 46.6341 34.169ZM14.6117 30.2625C14.0418 30.2625 13.5829 30.7718 13.5829 31.1551V43.963C13.5829 44.3461 14.0418 44.8599 14.6117 44.8599C15.1818 44.8599 15.6433 44.3461 15.6433 43.963V31.1551C15.6433 30.7718 15.1818 30.2625 14.6117 30.2625ZM18.0985 30.2625C17.5341 30.2625 17.0726 30.7718 17.0726 31.1551V43.963C17.0726 44.3461 17.5344 44.8599 18.0985 44.8599C18.6684 44.8599 19.1301 44.3461 19.1301 43.963V31.1551C19.1301 30.7718 18.6684 30.2625 18.0985 30.2625ZM21.5879 30.2625C21.0152 30.2625 20.5566 30.7718 20.5566 31.1551V43.963C20.5566 44.3461 21.0152 44.8599 21.5879 44.8599C22.1552 44.8599 22.6166 44.3461 22.6166 43.963V31.1551C22.6166 30.7718 22.1552 30.2625 21.5879 30.2625ZM25.0716 30.2625C24.5046 30.2625 24.0457 30.7718 24.0457 31.1551V43.963C24.0457 44.3461 24.5046 44.8599 25.0716 44.8599C25.6471 44.8599 26.1117 44.3461 26.1117 43.963V31.1551C26.1117 30.7718 25.6471 30.2625 25.0716 30.2625ZM28.5724 30.2625C28.0022 30.2625 27.5382 30.7718 27.5382 31.1551V43.963C27.5382 44.3461 28.0022 44.8599 28.5724 44.8599C29.1396 44.8599 29.6014 44.3461 29.6014 43.963V31.1551C29.6014 30.7718 29.1396 30.2625 28.5724 30.2625ZM32.0563 30.2625C31.4862 30.2625 31.0279 30.7718 31.0279 31.1551V43.963C31.0279 44.3461 31.4862 44.8599 32.0563 44.8599C32.6265 44.8599 33.0854 44.3461 33.0854 43.963V31.1551C33.0854 30.7718 32.6265 30.2625 32.0563 30.2625ZM35.5457 30.2625C34.9756 30.2625 34.5138 30.7718 34.5138 31.1551V43.963C34.5138 44.3461 34.9756 44.8599 35.5457 44.8599C36.113 44.8599 36.5742 44.3461 36.5742 43.963V31.1551C36.5745 30.7718 36.1133 30.2625 35.5457 30.2625Z" fill="#5f5f5f"></path>
    <path fill-rule="evenodd" clip-rule="evenodd" d="M48.6572 7.36133L1.34237 7.36746C-0.111986 7.36746 0.00209802 8.81095 0.00209802 8.81095V33.389C0.594425 29.6579 3.60557 26.8147 7.23691 26.8147H42.8263C46.3465 26.8147 49.2799 29.4795 50 33.0327V8.81402C50.0003 8.81371 50.0003 7.36133 48.6572 7.36133Z" fill="#5f5f5f"></path>
    <path fill-rule="evenodd" clip-rule="evenodd" d="M29.6112 15.1588C28.721 15.1588 28.0647 15.8384 27.9042 16.9225L27.8954 16.9957H31.1876V16.9299C31.1376 15.9258 30.459 15.1588 29.6112 15.1588ZM20.7471 15.1588C19.8518 15.1588 19.1983 15.8384 19.0427 16.9225L19.0316 16.9957H22.3207L22.3178 16.9299C22.2709 15.9258 21.5952 15.1588 20.7471 15.1588ZM39.1479 22.1692C38.2193 22.1692 37.491 21.7874 36.9764 21.0446L36.9596 21.0207H36.8372V24.7326H34.4096V13.6721H36.7177V14.641H36.8372L36.8589 14.6155C37.3399 13.8385 38.0634 13.4282 38.9531 13.4282C41.4746 13.4282 42.3699 15.8807 42.3699 17.9845C42.3705 20.0641 41.3753 22.1692 39.1479 22.1692ZM33.6176 18.4065H27.9008L27.9042 18.4723C27.9566 19.7032 28.6294 20.4367 29.7028 20.4367C30.3868 20.4367 30.9458 20.0834 31.1876 19.5144H33.4591C33.023 21.1749 31.6187 22.1692 29.675 22.1692C27.0806 22.1692 25.4709 20.4845 25.4709 17.7746C25.4709 15.3399 27.2892 13.4279 29.6112 13.4279C30.7925 13.4279 31.7828 13.8486 32.4807 14.6345C33.2204 15.4686 33.6258 16.7068 33.6258 18.1325C33.6258 18.2281 33.6204 18.3136 33.6176 18.4065ZM24.7506 18.4065H19.037V18.4723C19.0842 19.7032 19.7599 20.4367 20.8359 20.4367C21.5172 20.4367 22.0788 20.0834 22.3207 19.5144H24.5924C24.1557 21.1749 22.7491 22.1692 20.8083 22.1692C18.2196 22.1692 16.6068 20.4845 16.6068 17.7746C16.6068 15.3399 18.4253 13.4279 20.7468 13.4279C21.9258 13.4279 22.9127 13.8486 23.6163 14.6345C24.3557 15.4686 24.7563 16.7068 24.7563 18.1325C24.7563 18.2281 24.7537 18.3136 24.7506 18.4065ZM15.784 18.3393C15.784 20.9144 14.58 22.1695 12.0997 22.1695C9.57794 22.1695 8.40723 20.8099 8.40723 17.9036V17.4664H10.9125V18.468C10.9125 19.2616 11.3296 19.7093 12.0525 19.7093C12.7865 19.7093 13.1146 19.2285 13.1146 18.1475V10.5234H15.784V18.3393ZM38.3667 15.4015C37.5855 15.4015 36.7482 16.0109 36.7482 17.7103C36.7482 19.3842 37.2739 20.1928 38.3556 20.1928C39.5203 20.1928 39.9403 18.9126 39.9403 17.7103C39.9405 16.5962 39.526 15.4015 38.3667 15.4015ZM43.5605 24.4525C43.1122 24.4525 42.6823 24.2606 42.3653 23.9192C42.0484 23.5777 41.8703 23.1147 41.8703 22.6318C41.8703 21.6302 42.6294 20.8096 43.5605 20.8096C44.4917 20.8096 45.2507 21.6302 45.2507 22.6318C45.2508 22.8709 45.2071 23.1077 45.1221 23.3286C45.0372 23.5495 44.9127 23.7502 44.7558 23.9193C44.5988 24.0883 44.4125 24.2224 44.2074 24.3139C44.0023 24.4054 43.7825 24.4525 43.5605 24.4525ZM43.5605 21.2662C43.2245 21.2672 42.9026 21.4114 42.665 21.6673C42.4274 21.9232 42.2935 22.27 42.2925 22.6318C42.2925 23.3822 42.8626 23.9929 43.5605 23.9929C44.2584 23.9929 44.8285 23.3819 44.8285 22.6318C44.8275 22.27 44.6935 21.9233 44.456 21.6674C44.2184 21.4116 43.8965 21.2673 43.5605 21.2662ZM43.8299 23.6127L43.5548 22.8522H43.2598V23.6127H42.8348V21.6899H43.6217C43.8524 21.6899 43.975 21.7273 44.0863 21.8202C44.1975 21.925 44.2723 22.0972 44.2723 22.2678C44.2723 22.4474 44.1918 22.6168 44.0666 22.7051C44.0444 22.7278 44.0132 22.7397 43.9605 22.7636L44.2917 23.6127H43.8299ZM43.5079 22.0313H43.2601V22.5225H43.5136C43.7469 22.5225 43.8413 22.452 43.8413 22.2724C43.8413 22.0972 43.7523 22.0313 43.5079 22.0313Z" fill="white"></path>
  </g>
</svg>
