<?xml version="1.0" encoding="UTF-8"?>
<svg xmlns="http://www.w3.org/2000/svg" width="50" height="50" viewBox="0 0 50 50" fill="none">
  <mask id="mask0_3316_65" style="mask-type:alpha" maskUnits="userSpaceOnUse" x="0" y="0" width="50" height="50">
    <rect width="50" height="50" fill="#D9D9D9"></rect>
  </mask>
  <g mask="url(#mask0_3316_65)">
    <path fill-rule="evenodd" clip-rule="evenodd" d="M48.1581 13.2712L48.028 12.6814L47.852 12.1085L47.6302 11.5352L47.352 10.954C46.9883 10.3294 46.5735 9.72986 46.1111 9.16019C45.8295 8.81548 45.53 8.48291 45.2134 8.16359C44.6224 7.61574 44.0013 7.09474 43.3523 6.60254L42.5834 6.07081L42.5003 6.02102C41.5096 5.4065 40.4717 4.85855 39.4075 4.35186C38.3981 3.8702 37.324 3.49637 36.2588 3.13107L35.2031 2.81556L34.314 2.56605L34.1107 2.51627C32.583 2.15922 31.0458 1.86846 29.4901 1.66078L28.2492 1.52791L27.0083 1.43659L25.7493 1.37827L24.4712 1.35352C22.9432 1.37827 21.4155 1.46988 19.897 1.61099C19.4389 1.66045 18.982 1.7186 18.5267 1.78539C16.9064 2.01782 15.3136 2.3834 13.7488 2.81528C13.3875 2.91485 13.0265 3.02268 12.6744 3.13079C12.1512 3.30828 11.6325 3.49647 11.1188 3.69523C10.6477 3.87321 10.1814 4.06151 9.72055 4.25997C8.832 4.6687 7.96381 5.11209 7.11846 5.58886C6.36552 6.05396 5.63924 6.55285 4.94239 7.08363C4.3568 7.56601 3.80046 8.07618 3.27576 8.61196C2.91445 8.99404 2.59058 9.40088 2.27559 9.81625L1.89589 10.3975L1.57201 10.954L1.29445 11.5352L1.07209 12.1085L0.896034 12.6814L0.766294 13.2712L0.701266 13.8692C0.664152 14.4673 0.701266 15.0653 0.766294 15.6548C0.895402 16.244 1.07181 16.8241 1.29413 17.3905C1.58042 17.9789 1.90824 18.5504 2.27559 19.1015C2.72 19.6827 3.21105 20.2392 3.72017 20.7706C4.46468 21.452 5.25974 22.0874 6.09989 22.6725C6.58142 23.0131 7.10926 23.3121 7.62759 23.6028C8.60936 24.1346 9.61841 24.6162 10.6557 25.0646C10.813 25.1226 10.9704 25.1809 11.1185 25.239C11.9518 25.538 12.7851 25.8285 13.6372 26.0862L14.8039 26.4017C15.9522 26.6675 17.1097 26.8916 18.2764 27.0743C18.3598 27.0911 18.4429 27.0993 18.5264 27.1158C19.2394 27.2239 19.9525 27.3153 20.6745 27.3901C21.943 27.4814 23.2024 27.548 24.4709 27.5642C25.9986 27.5395 27.5174 27.4481 29.0359 27.307C30.2118 27.1907 31.3975 26.9747 32.555 26.7423C33.1381 26.6177 33.731 26.4851 34.314 26.3437C34.4348 26.3107 34.5643 26.2777 34.6845 26.2441C35.8791 25.9369 37.0369 25.5297 38.1665 25.0814C38.8236 24.8185 39.4721 24.5388 40.1113 24.2427C40.9251 23.8196 41.7219 23.3708 42.5003 22.8973L42.5834 22.8475C43.5096 22.2079 44.3893 21.5189 45.2042 20.7712C45.7197 20.2363 46.2018 19.6764 46.6484 19.0938C47.1366 18.3747 47.5401 17.612 47.8523 16.8181C48.0188 16.2451 48.1492 15.6721 48.2228 15.0823L48.2599 14.4596L48.232 13.8783L48.1581 13.2712ZM18.5264 18.3538H15.489L14.637 16.9253H7.51656L6.58142 18.3538H2.84023L9.22982 8.60371L8.55385 7.54082H12.341L18.5267 17.4403L19.0913 18.3538H18.5264ZM28.1934 15.0983C28.2121 17.3074 25.5634 18.5532 23.0079 18.5532C21.2858 18.5532 19.4336 17.7558 18.5264 16.6181C18.1654 16.1614 17.9522 15.663 17.9522 15.1316V10.4555H21.045V14.1597C21.045 15.4138 21.9338 16.1364 23.1101 16.1364C24.0452 16.1364 25.1656 15.5051 25.1656 14.2428V10.4555H28.1934V15.0983ZM34.314 18.578C31.1289 18.578 28.536 16.6846 28.536 14.3591C28.536 12.0504 31.0917 10.1568 34.2401 10.1318L32.3603 7.64039H35.7957L39.0179 11.9008C39.7031 12.5901 40.1015 13.4456 40.1015 14.3591C40.1018 16.6844 37.5093 18.578 34.314 18.578ZM43.9909 18.3205H41.0091V10.4476H43.9909V18.3205Z" fill="#CC2229"></path>
    <path fill-rule="evenodd" clip-rule="evenodd" d="M11.1189 11.372L8.9707 14.6691H13.2765L11.1839 11.2725L11.1189 11.372Z" fill="#CC2229"></path>
    <path fill-rule="evenodd" clip-rule="evenodd" d="M49.4356 13.7876L49.3525 13.115L49.2132 12.4425L49.0187 11.7861L48.7599 11.1383L48.4544 10.4908C47.8064 9.36133 47.0466 8.38123 46.1026 7.41791C45.4536 6.82753 44.7768 6.26228 44.074 5.72372L43.2966 5.19227C43.0371 5.03437 42.7687 4.86822 42.5004 4.71886C41.6112 4.19567 40.6945 3.73051 39.7501 3.28214L38.768 2.86677L37.7403 2.47643L36.676 2.10289L35.5737 1.77913L34.4441 1.47187C34.3978 1.45536 34.3512 1.44683 34.3141 1.43858C32.7758 1.08258 31.2183 0.797048 29.6476 0.583088L28.3695 0.450227L27.0921 0.358903L25.7953 0.292614L24.4713 0.267578C22.7213 0.30058 21.0175 0.408405 19.2858 0.582804L18.5264 0.682663L18.0541 0.748952L16.8411 0.964887C15.291 1.26807 13.7607 1.64789 12.2574 2.1026C11.8777 2.23546 11.498 2.37658 11.1186 2.51797C10.4677 2.76071 9.82245 3.01549 9.18328 3.28214C8.24814 3.71401 7.3406 4.18742 6.45177 4.68558C5.65069 5.17892 4.87803 5.70839 4.13676 6.27195C3.46998 6.82843 2.84032 7.40141 2.25696 8.01593L1.71992 8.6222L1.25711 9.23672L0.831096 9.86802L0.479308 10.4908L0.164316 11.1383L-0.0859637 11.7861L-0.289614 12.4425L-0.428552 13.115L-0.511979 13.7876C-0.549093 14.4852 -0.511979 15.1247 -0.428552 15.8223C-0.289614 16.4866 -0.0859638 17.1344 0.164316 17.7822C0.476632 18.4391 0.841862 19.0748 1.25711 19.6841C1.73864 20.3237 2.26648 20.9214 2.82192 21.5112C3.69984 22.3067 4.63726 23.0475 5.62766 23.7286C7.08144 24.6256 8.55394 25.373 10.1559 26.0538C10.4797 26.1784 10.8039 26.2948 11.1189 26.4111C11.8577 26.6696 12.6017 26.916 13.3505 27.1502L14.4804 27.4575C15.8324 27.7648 17.1659 28.0222 18.5271 28.2217C19.1939 28.3215 19.8695 28.4046 20.555 28.4791C21.8607 28.5705 23.1663 28.637 24.4719 28.6533C26.2022 28.627 27.9299 28.5218 29.6482 28.338C31.2406 28.1306 32.7775 27.8396 34.3147 27.466C34.7315 27.3662 35.1579 27.2586 35.5744 27.1505C37.3346 26.619 39.0466 25.9666 40.6951 25.1991C41.3057 24.8825 41.9078 24.553 42.501 24.2108C42.7694 24.0529 43.0374 23.887 43.2972 23.7291C44.2896 23.0501 45.2272 22.3092 46.1033 21.5117C46.6615 20.9288 47.1838 20.3188 47.6677 19.6847C48.2184 18.8804 48.6716 18.0257 49.0197 17.135C49.2141 16.4809 49.3534 15.8146 49.4365 15.1418L49.4736 14.4607L49.4356 13.7876ZM48.8249 15.1415C48.7507 15.7643 48.6118 16.3706 48.4357 16.9768C48.1394 17.716 47.7876 18.4221 47.3521 19.1029C47.0654 19.5348 46.732 19.9416 46.3894 20.3405C46.1483 20.6062 45.9079 20.8802 45.6576 21.1376C44.8055 21.9183 43.898 22.6241 42.9445 23.2887C42.7963 23.3801 42.6482 23.4714 42.5004 23.5545C41.8171 23.9625 41.1191 24.3503 40.4074 24.7172C39.1385 25.3067 37.8516 25.8216 36.5184 26.27C36.1479 26.3946 35.7682 26.511 35.3885 26.6273C35.0329 26.7264 34.6746 26.8178 34.3141 26.9013C33.0535 27.2099 31.7775 27.4649 30.4901 27.6655C30.184 27.7153 29.8785 27.7568 29.573 27.7986C27.8693 27.9727 26.1839 28.0808 24.471 28.1059C23.1837 28.0891 21.8968 28.0228 20.6188 27.9315C19.9152 27.8567 19.2205 27.7736 18.5261 27.6655C17.6557 27.5409 16.7945 27.3833 15.9336 27.2089C15.6229 27.1503 15.3141 27.0839 15.0076 27.0097C14.3408 26.8603 13.6928 26.6774 13.0447 26.4783C12.3975 26.2718 11.7553 26.053 11.1186 25.8219C10.887 25.7388 10.6463 25.6478 10.4055 25.5562C9.34777 25.1069 8.31556 24.6108 7.31268 24.0697C6.77565 23.7621 6.22909 23.4549 5.71996 23.1064C4.85775 22.4992 4.04106 21.8417 3.27521 21.1382C2.73599 20.5828 2.23209 20.0005 1.76592 19.3942C1.37823 18.8138 1.03189 18.2119 0.728954 17.5922C0.497706 16.9859 0.302938 16.3711 0.173516 15.7404C0.0992883 15.1091 0.0621743 14.4695 0.0900889 13.8303L0.173516 13.1992L0.303255 12.5597L0.48819 11.9452L0.728954 11.3389L1.02523 10.7244L1.36782 10.1346L1.76592 9.52833L2.21033 8.9471L2.76577 8.31608C3.32153 7.73484 3.91408 7.20311 4.53454 6.6802C5.25592 6.13257 6.00681 5.617 6.78453 5.13537C7.65471 4.65239 8.54423 4.19803 9.45133 3.77318C10.0017 3.54144 10.5574 3.31995 11.118 3.10888C11.5624 2.93448 12.0163 2.77658 12.4607 2.61897C12.7846 2.51939 13.1088 2.42807 13.433 2.33646C15.0996 1.8713 16.7941 1.48125 18.5258 1.23203C18.961 1.17371 19.3962 1.11567 19.8315 1.07414C21.3779 0.932739 22.9243 0.841414 24.4707 0.816663L25.7668 0.833448L27.0448 0.899737L28.3131 0.991061L29.7113 1.14042C31.2485 1.35636 32.767 1.64683 34.277 1.99591L34.3134 2.00416L35.3878 2.29492L36.4714 2.61868L37.5179 2.98427C38.2491 3.26649 38.9901 3.54075 39.6937 3.87276C40.1105 4.07219 40.5178 4.27134 40.9162 4.48756C41.4568 4.76216 41.985 5.05581 42.4997 5.36781C43.0211 5.68232 43.5219 6.02333 43.9998 6.38916C44.5724 6.83751 45.1253 7.30567 45.6573 7.7926C45.9627 8.09986 46.2501 8.4239 46.5277 8.74766C47.0416 9.37328 47.4998 10.0342 47.898 10.7244L48.1943 11.3389L48.4354 11.9452L48.6206 12.5597L48.7501 13.1992L48.8338 13.8303L48.8703 14.4616L48.8249 15.1415Z" fill="#CC2229"></path>
    <path fill-rule="evenodd" clip-rule="evenodd" d="M34.3151 12.4258C32.8524 12.4258 31.667 13.2895 31.667 14.3609C31.667 15.4238 32.8521 16.2958 34.3151 16.2958C35.7784 16.2958 36.9638 15.4238 36.9638 14.3609C36.9638 13.2895 35.7787 12.4258 34.3151 12.4258Z" fill="#CC2229"></path>
    <path fill-rule="evenodd" clip-rule="evenodd" d="M14.0259 46.5629C13.7397 46.18 13.5065 45.7673 13.3315 45.3339L13.2664 45.3421L12.8312 45.3504C12.5634 44.6529 12.4257 43.9205 12.4236 43.1828C12.4236 42.0701 12.7291 41.032 13.2664 40.1267C13.4825 39.76 13.7367 39.4125 14.0259 39.0888C14.0443 39.0638 14.0627 39.0388 14.0906 39.014L14.5626 38.9972L14.7849 38.989L14.9423 38.8479C14.8221 38.7398 14.6923 38.6319 14.5626 38.5238C14.3922 38.3923 14.2129 38.2703 14.0259 38.1585C13.7821 38.0118 13.5285 37.8786 13.2664 37.7599C12.4515 37.4029 11.544 37.2117 10.5438 37.1787H10.1733C6.56186 37.27 3.6543 39.9275 3.6543 43.1828V43.3404C3.6635 43.3819 3.6635 43.4317 3.6635 43.4815V43.4898C3.6635 43.5398 3.6727 43.5896 3.6727 43.6309V43.6477C3.68189 43.6892 3.68189 43.739 3.69141 43.7805V43.7973C3.70061 43.8474 3.70061 43.8886 3.71013 43.9305V43.9552C3.71933 43.9967 3.71933 44.03 3.72884 44.0716C3.72884 44.0881 3.73804 44.0963 3.73804 44.1131C3.74756 44.1464 3.74756 44.1794 3.75676 44.2212C3.75676 44.2295 3.76596 44.246 3.76596 44.2628C3.77515 44.2958 3.77515 44.329 3.78467 44.3538C3.79387 44.3788 3.79387 44.3953 3.80339 44.4201C3.80339 44.4451 3.81259 44.4702 3.8221 44.4952C3.8221 44.5199 3.8313 44.545 3.8405 44.5697C3.8405 44.5865 3.8497 44.6113 3.8589 44.6363C3.8681 44.6611 3.8681 44.6943 3.87761 44.7194C3.88681 44.7359 3.88681 44.7524 3.89633 44.7692C3.90553 44.8107 3.92393 44.844 3.93344 44.8852C3.98896 45.0431 4.04447 45.1845 4.09998 45.3336C4.9057 47.194 6.71127 48.6142 8.92445 49.0461L9.23025 48.6059C9.53572 48.6557 9.8504 48.689 10.1746 48.697H10.3506C11.3505 48.697 12.3878 48.4563 13.2674 48.066C13.499 47.9661 13.721 47.85 13.925 47.7254L14.0268 47.7174L14.5635 47.6842L14.8043 47.6674L14.934 47.5595C14.8058 47.4444 14.6822 47.3253 14.5635 47.2022C14.3655 47.0024 14.1857 46.7886 14.0259 46.5629ZM13.2664 47.4765C13.1091 47.5598 12.9423 47.6426 12.7757 47.7177C12.5258 47.8173 12.2758 47.9086 12.0163 47.9917C11.7384 48.058 11.4793 48.1163 11.2017 48.1578C10.9146 48.1908 10.6368 48.2076 10.3497 48.2159C10.2847 48.2159 10.2291 48.2159 10.1736 48.2076C9.94207 48.1994 9.72002 48.1826 9.49766 48.1578C9.22279 48.1161 8.95073 48.0606 8.68274 47.9917C8.41406 47.9086 8.17361 47.8173 7.91413 47.7177C7.67253 47.607 7.43757 47.485 7.21024 47.3521C6.98885 47.2126 6.77561 47.063 6.57138 46.9038C6.37682 46.7375 6.19135 46.5629 6.01562 46.3806C5.85009 46.1894 5.69254 45.9928 5.54329 45.7911C5.40702 45.5783 5.28345 45.3593 5.17311 45.1348C5.07389 44.9053 4.98427 44.6726 4.90443 44.4372C4.84174 44.1931 4.7923 43.9464 4.75629 43.698C4.73758 43.432 4.72838 43.1828 4.73757 42.9174C4.75629 42.6681 4.79309 42.4189 4.84892 42.17C4.91363 41.9208 4.97834 41.6883 5.07097 41.4556C5.17279 41.2232 5.28381 41.0072 5.41355 40.783C5.54329 40.5668 5.69143 40.3677 5.84877 40.1685C6.0153 39.9773 6.19136 39.8029 6.37661 39.6203C6.58026 39.4541 6.77471 39.2962 6.98756 39.1469C7.21912 39.0058 7.43197 38.8729 7.67305 38.7565C7.91683 38.6424 8.16714 38.5398 8.42294 38.4493C8.68266 38.3655 8.94888 38.2989 9.21946 38.2501L9.7749 38.1671C9.90464 38.1588 10.0341 38.1588 10.173 38.1503H10.6358C10.9229 38.1671 11.1913 38.2001 11.4786 38.2501C11.7473 38.2999 12.0065 38.3665 12.2748 38.4493C12.5248 38.5406 12.7748 38.6405 13.0155 38.7565C13.099 38.7981 13.1824 38.8396 13.2658 38.8894L13.3213 38.9144L13.386 38.9642C13.3489 39.0143 13.3026 39.0641 13.2658 39.1136C12.3491 40.2763 11.8859 41.6465 11.8859 43.1831C11.8845 44.6067 12.3657 45.9971 13.2658 47.1698C13.3213 47.2446 13.3768 47.3109 13.4324 47.3857C13.3751 47.4131 13.3197 47.4434 13.2664 47.4765Z" fill="#D0D1D3"></path>
    <path fill-rule="evenodd" clip-rule="evenodd" d="M38.5737 36.0918C38.5179 36.0918 38.4621 36.0918 38.3977 36.1C36.7031 36.1331 35.1469 36.6483 33.8695 37.495C33.7066 37.3852 33.5399 37.2801 33.3696 37.1797C32.9536 36.9454 32.5133 36.7479 32.0547 36.59C31.1656 36.2662 30.1838 36.0918 29.1659 36.0918C29.11 36.0918 29.045 36.0918 28.9898 36.1C27.3621 36.1293 25.7853 36.6143 24.48 37.487C24.3177 37.3789 24.1508 37.2764 23.9798 37.1797C23.8009 37.0806 23.6188 36.9864 23.4335 36.8972C23.1813 36.7787 22.9216 36.6734 22.6557 36.5817C21.742 36.257 20.7678 36.0908 19.785 36.0918C19.7295 36.0918 19.6647 36.0918 19.6092 36.1C19.313 36.1 19.0259 36.1248 18.7388 36.1581C17.3773 36.316 16.1183 36.7976 15.0626 37.5035C14.9012 37.3917 14.7343 37.2865 14.5624 37.188C14.3886 37.0888 14.2095 36.9973 14.0257 36.914C12.8933 36.3754 11.6313 36.0932 10.3495 36.0921C10.2845 36.0921 10.229 36.0921 10.1734 36.1003C5.89553 36.1834 2.44141 39.3308 2.44141 43.1841C2.44141 47.0294 5.89521 50.1768 10.1734 50.2681H10.3495C11.3773 50.2681 12.3587 50.0852 13.2663 49.7617C13.5252 49.6713 13.7787 49.5687 14.0257 49.4545C14.2077 49.3652 14.3866 49.2711 14.5624 49.1722C14.7384 49.0724 14.905 48.9646 15.0626 48.8565C16.1183 49.5623 17.3773 50.0442 18.7388 50.2019C19.0259 50.2434 19.313 50.2599 19.6092 50.2681H19.785C20.7679 50.2694 21.7421 50.1031 22.6557 49.7779C22.9241 49.6869 23.1836 49.5788 23.4335 49.4624C23.6207 49.3794 23.803 49.288 23.9798 49.1885C24.1466 49.0889 24.3132 48.9811 24.48 48.8732C25.7489 49.7202 27.3038 50.2351 28.9898 50.2681H29.1659C30.1838 50.2681 31.1659 50.094 32.0547 49.7779C32.5118 49.6139 32.9519 49.4137 33.3696 49.1799C33.5361 49.0804 33.7122 48.9808 33.8695 48.8644C35.1469 49.7199 36.7035 50.2349 38.3977 50.2681H38.5737C42.9256 50.2681 46.4812 47.0874 46.4812 43.1841C46.4812 39.2808 42.9256 36.0918 38.5737 36.0918ZM45.4718 43.1841C45.4718 46.5893 42.3698 49.3631 38.5737 49.3631H38.398C38.3422 49.3631 38.2864 49.3549 38.2315 49.3549H38.2128C38.1664 49.3549 38.1106 49.3466 38.0554 49.3466H38.0367C37.9904 49.3384 37.9346 49.3384 37.8886 49.3301H37.8607C37.8143 49.3216 37.7677 49.3216 37.7217 49.3131H37.6846C37.6383 49.3051 37.5917 49.2966 37.5552 49.2966C37.5358 49.2883 37.5273 49.2883 37.5089 49.2883C37.4718 49.2801 37.4251 49.2801 37.3886 49.2715C37.3699 49.2633 37.3515 49.2633 37.3328 49.2633C37.2958 49.2551 37.2588 49.2468 37.2218 49.2385C37.2024 49.2385 37.1847 49.2385 37.166 49.2303C37.1196 49.222 37.0822 49.2135 37.0365 49.2053C35.814 48.956 34.7491 48.4579 33.8695 47.7022L33.8508 47.6855C33.7677 47.7685 33.5919 47.9096 33.3692 48.0675C33.2763 48.1338 33.184 48.2004 33.0825 48.2667C32.7569 48.4667 32.4131 48.6418 32.0547 48.7899C31.1496 49.1669 30.1638 49.3626 29.1659 49.3631H28.9898H28.9806C28.9248 49.3631 28.869 49.3549 28.8134 49.3549H28.8049C28.7491 49.3549 28.7027 49.3466 28.6469 49.3466H28.6288C28.5825 49.3384 28.5267 49.3384 28.4715 49.3301H28.4436C28.3973 49.3216 28.3506 49.3216 28.3043 49.3131H28.277C28.2307 49.3051 28.1841 49.2966 28.1378 49.2966C28.1292 49.2883 28.1105 49.2883 28.1013 49.2883C28.055 49.2801 28.0176 49.2801 27.9713 49.2715C27.9532 49.2633 27.944 49.2633 27.9253 49.2633C27.8881 49.255 27.8415 49.2468 27.8044 49.2385C27.7863 49.2385 27.7679 49.2385 27.7492 49.2303C27.7121 49.222 27.6655 49.2135 27.6283 49.2053C26.7645 49.0256 25.9473 48.6985 25.2213 48.2416C24.9711 48.059 24.7392 47.8929 24.4895 47.7022C24.3046 47.8433 24.1377 47.968 23.9804 48.0843C23.8786 48.1506 23.786 48.2172 23.6933 48.2752C23.6099 48.3253 23.5173 48.3751 23.4342 48.4246C23.1851 48.5655 22.9252 48.6903 22.6564 48.7981C21.7859 49.1634 20.8134 49.3629 19.7856 49.3629H19.6099C19.5544 49.3629 19.4988 49.3546 19.443 49.3546H19.4246C19.3783 49.3546 19.3228 49.3464 19.267 49.3464H19.2486C19.2022 49.3381 19.1467 49.3381 19.1004 49.3299H19.0728C19.0265 49.3213 18.9802 49.3213 18.9247 49.3128H18.8968C18.8505 49.3048 18.8041 49.2963 18.7578 49.2963C18.7578 49.2963 18.7483 49.288 18.7391 49.288H18.7204C18.6833 49.2798 18.637 49.2798 18.5907 49.2713C18.5815 49.263 18.5631 49.263 18.5444 49.263C18.5072 49.2548 18.4701 49.2465 18.4238 49.2383C18.4054 49.2383 18.3867 49.2383 18.3775 49.23C18.3312 49.2217 18.2941 49.2132 18.2478 49.205C17.0347 48.9557 15.9419 48.416 15.0623 47.6769V47.6687C14.9142 47.7847 14.8587 47.8431 14.5621 48.059C14.4882 48.1091 14.3955 48.1754 14.275 48.2499C14.1916 48.3082 14.1085 48.358 14.025 48.4078C13.7748 48.5409 13.5248 48.6653 13.2656 48.7816C12.3528 49.1651 11.3569 49.3636 10.3489 49.3629H10.1636C10.1081 49.3629 10.0523 49.3546 9.99676 49.3546H9.98756C9.93173 49.3546 9.87622 49.3464 9.82102 49.3464H9.81151C9.756 49.3381 9.70968 49.3381 9.65417 49.3299H9.62657C9.58026 49.3213 9.53395 49.3213 9.48763 49.3128H9.45052C9.40813 49.3028 9.36459 49.2973 9.32078 49.2963C9.30207 49.288 9.29318 49.288 9.28367 49.288C9.23735 49.2798 9.19104 49.2798 9.15393 49.2713C9.13553 49.263 9.11681 49.263 9.10761 49.263C9.06731 49.2557 9.02722 49.2474 8.98739 49.2383C8.96868 49.2383 8.95028 49.2383 8.93188 49.23C8.89476 49.2217 8.84845 49.2132 8.81134 49.205C6.54296 48.7398 4.69076 47.2618 3.88535 45.3346L3.39463 45.3514C3.11924 44.6554 2.97827 43.9223 2.97781 43.1838C2.97781 39.5963 6.19085 36.6648 10.1728 36.5814H10.2746L10.4786 36.9968C11.4972 37.0136 12.4231 37.2127 13.2659 37.5615C13.5251 37.6694 13.7751 37.7857 14.0254 37.9268C14.2103 38.0267 14.3863 38.1428 14.5621 38.2588C14.7381 38.3834 14.9047 38.5081 15.0623 38.6495C15.0874 38.6582 15.1097 38.6725 15.127 38.691L15.2289 38.6162L15.2476 38.0016C16.3308 37.2958 17.4696 36.8141 18.7385 36.648C19.0256 36.6065 19.3126 36.5897 19.6089 36.5814H19.7107L19.9144 36.9968C20.9142 37.0136 21.831 37.2042 22.6554 37.5365C22.9238 37.6446 23.1833 37.7689 23.4332 37.91C23.5258 37.9598 23.6185 38.0181 23.7111 38.0679C23.7111 38.0762 23.7019 38.0762 23.7019 38.0762C23.7111 38.0762 23.7111 38.0762 23.7295 38.0844C23.8129 38.1342 23.896 38.1925 23.9795 38.2423C24.0258 38.2753 24.0721 38.3172 24.1276 38.3502C24.1368 38.3584 24.1463 38.3672 24.1368 38.3752C24.1368 38.3672 24.146 38.3672 24.146 38.3672C24.2941 38.4668 24.4331 38.5829 24.5625 38.691L24.7018 38.5911C24.7477 38.5496 24.6554 37.9766 24.7018 37.9436C25.9306 37.0883 27.434 36.6106 28.9892 36.5814H29.0907L29.2947 36.9968C30.304 37.0136 31.2303 37.2127 32.0541 37.545C32.5261 37.7362 32.961 37.9769 33.3689 38.2509C33.5355 38.3755 33.7115 38.5001 33.8689 38.633C33.8968 38.6577 33.9152 38.6745 33.9431 38.691L34.0541 38.5664L34.082 37.9601C35.3176 37.0961 36.831 36.6126 38.3974 36.5814H38.4989L38.7029 36.9968C41.5362 37.0466 43.953 38.633 44.9621 40.8671C44.9808 40.9087 44.9992 40.942 45.0179 40.9832C45.0179 40.9915 45.0271 41 45.0271 41C45.0458 41.0415 45.055 41.0831 45.0734 41.1164C45.0734 41.1243 45.0826 41.1411 45.0826 41.1494C45.1007 41.1826 45.1099 41.2156 45.1286 41.2575C45.1286 41.2654 45.1378 41.2822 45.1378 41.2905C45.147 41.3238 45.1657 41.3568 45.1749 41.3903C45.1841 41.4071 45.1841 41.4319 45.1936 41.4566L45.2216 41.5314C45.2308 41.5565 45.2308 41.5815 45.2403 41.5977C45.2507 41.6217 45.2568 41.6469 45.2584 41.6725C45.2676 41.7056 45.2771 41.7309 45.2863 41.7556C45.2863 41.7724 45.2955 41.7972 45.2955 41.8219C45.3047 41.8469 45.3142 41.8802 45.3234 41.9132C45.3234 41.9297 45.3326 41.9465 45.3326 41.963L45.3605 42.0629C45.3605 42.0797 45.3605 42.0962 45.3697 42.1127C45.3697 42.146 45.3789 42.1878 45.3884 42.2208V42.2623C45.3976 42.2956 45.4071 42.3374 45.4071 42.3787C45.4163 42.3869 45.4163 42.4037 45.4163 42.4117C45.4249 42.4532 45.4249 42.495 45.4344 42.5363V42.561C45.4436 42.6026 45.4436 42.6527 45.4531 42.6942V42.711C45.4531 42.7608 45.4531 42.8105 45.4623 42.8603V42.8683C45.4623 42.9184 45.4623 42.9682 45.4715 43.0179V43.0259L45.4718 43.1841Z" fill="#D0D1D3"></path>
    <path fill-rule="evenodd" clip-rule="evenodd" d="M38.7786 37.1787H38.3992C36.6396 37.2202 35.0469 37.8763 33.871 38.9227C33.6948 39.0808 33.5279 39.2471 33.3711 39.4209C32.7509 40.1185 32.2875 40.9324 32.0562 41.8294C31.9437 42.2735 31.8878 42.7277 31.8897 43.1831V43.3407C31.8897 43.3822 31.8897 43.432 31.8989 43.4818V43.4901C31.8989 43.5401 31.8989 43.5899 31.9081 43.6312V43.648C31.9081 43.6895 31.9167 43.7393 31.9262 43.7808V43.7976C31.9262 43.8477 31.9354 43.8889 31.9354 43.9307C31.9446 43.939 31.9446 43.9472 31.9446 43.9555C31.9538 43.997 31.9538 44.0303 31.9633 44.0719C31.9633 44.0884 31.9633 44.0966 31.9725 44.1134C31.9725 44.1467 31.9817 44.1797 31.9912 44.2215C31.9912 44.2298 31.9912 44.2463 32.0004 44.263C32.0004 44.296 32.0096 44.3293 32.0191 44.3541C32.0191 44.3791 32.0283 44.3956 32.0283 44.4204L32.0562 44.4955V44.537C32.0654 44.5453 32.0654 44.5535 32.0654 44.57C32.0768 44.5908 32.083 44.6135 32.0835 44.6366C32.0927 44.6613 32.1022 44.6946 32.1114 44.7197C32.1206 44.7362 32.1206 44.7527 32.1301 44.7695C32.1393 44.811 32.1489 44.8443 32.1673 44.8855C32.2136 45.0434 32.2688 45.1848 32.3338 45.3339C32.5839 45.9137 32.9339 46.4546 33.3711 46.9371C33.5192 47.1032 33.6765 47.2611 33.8526 47.4184C33.8526 47.4105 33.8618 47.4019 33.8713 47.3934C33.9176 47.3436 33.9915 47.2443 34.0103 47.2275C34.0195 46.9701 34.094 46.671 34.1032 46.4218L34.2326 46.3058C34.8994 45.4255 35.3162 44.3376 35.3162 43.1828C35.319 42.5546 35.1999 41.9308 34.9644 41.3392L35.3993 40.9904C35.1954 40.5253 34.8994 40.0769 34.5568 39.6698L34.6126 39.62C34.6491 39.5867 34.6862 39.562 34.7237 39.5287C35.064 39.9406 35.3441 40.39 35.557 40.8658C35.5757 40.9074 35.5941 40.9407 35.6128 40.9819C35.6128 40.9902 35.6128 40.9987 35.622 40.9987C35.6312 41.0402 35.6499 41.0818 35.668 41.1151C35.668 41.123 35.668 41.1398 35.6778 41.1481C35.6864 41.1813 35.7051 41.2143 35.7143 41.2562C35.7235 41.2641 35.7235 41.2809 35.733 41.2892L35.7609 41.389C35.7701 41.4058 35.7797 41.4306 35.7889 41.4553C35.7981 41.4804 35.7981 41.5051 35.8076 41.5301C35.8171 41.5552 35.8263 41.5802 35.8349 41.5964C35.8349 41.6215 35.8441 41.6462 35.8542 41.6712C35.8628 41.7042 35.8628 41.7296 35.8723 41.7543C35.8815 41.7711 35.8815 41.7959 35.891 41.8206C35.9002 41.8456 35.9097 41.8789 35.9189 41.9119C35.9189 41.9284 35.9189 41.9452 35.9281 41.9617C35.9373 41.995 35.9373 42.0283 35.9468 42.0616C35.9468 42.0784 35.956 42.0949 35.956 42.1114C35.9652 42.1447 35.9747 42.1865 35.9747 42.2195C35.9839 42.2363 35.9839 42.2445 35.9839 42.261C35.9931 42.2943 35.9931 42.3361 36.0027 42.3774C36.0027 42.3856 36.0027 42.4024 36.0119 42.4104C36.0119 42.4519 36.0204 42.4937 36.0204 42.535C36.0204 42.5432 36.0303 42.5518 36.0303 42.5597C36.0303 42.6013 36.0388 42.6514 36.0388 42.6929V42.7097C36.048 42.7595 36.048 42.8092 36.048 42.859V42.867C36.0572 42.9171 36.0572 42.9669 36.0572 43.0166V43.1825C36.0572 44.5447 35.5665 45.807 34.724 46.8284C34.4372 47.1189 34.2425 47.3849 34.0667 47.551C34.9371 48.2984 35.937 48.8048 37.1595 49.0458L37.465 48.6056C37.7705 48.6554 38.0852 48.6887 38.4005 48.6967H38.5765C41.9656 48.6967 44.7342 46.2221 44.7342 43.1822C44.7342 42.5347 44.6042 41.9117 44.3824 41.3387L44.8081 40.9899C43.8533 38.8146 41.5193 37.2532 38.7786 37.1787ZM34.6678 42.17C34.7138 42.4189 34.7509 42.6681 34.7789 42.9174C34.7789 43.1831 34.7789 43.4323 34.7509 43.698C34.7151 43.9464 34.6657 44.1931 34.6028 44.4372C34.5304 44.6737 34.4437 44.9066 34.3433 45.1348C34.2262 45.3578 34.0995 45.5768 33.9636 45.7911C33.9362 45.8346 33.9054 45.8762 33.8713 45.9157C33.8434 45.8742 33.8063 45.8326 33.779 45.7911C33.6425 45.5784 33.5188 45.3593 33.4085 45.1348C33.3898 45.1097 33.3806 45.0767 33.3714 45.0517C33.2817 44.8508 33.2044 44.6456 33.1398 44.4372C33.0773 44.193 33.0279 43.9464 32.9917 43.698C32.973 43.432 32.9638 43.1828 32.973 42.9174C32.9917 42.6681 33.0288 42.4189 33.0751 42.17C33.1395 41.9208 33.2141 41.6883 33.3064 41.4556C33.3251 41.4058 33.3435 41.3557 33.3714 41.3145C33.4512 41.1335 33.5407 40.9562 33.6398 40.783C33.714 40.6667 33.7971 40.5589 33.8713 40.4507C33.9551 40.5589 34.0287 40.6667 34.1029 40.783C34.2323 41.0072 34.3341 41.2232 34.4363 41.4556C34.5283 41.6883 34.6028 41.9208 34.6678 42.17ZM44.168 43.698C44.1318 43.9464 44.0824 44.193 44.0199 44.4372C43.9401 44.6727 43.8503 44.9054 43.7509 45.1348C43.6399 45.3589 43.5196 45.5752 43.381 45.7911C43.2322 45.9902 43.0749 46.1897 42.9084 46.3806C42.7327 46.5628 42.5474 46.7374 42.3532 46.9038C42.1488 47.063 41.9353 47.2126 41.7137 47.3521C41.4825 47.485 41.2509 47.6096 41.0099 47.7177C40.751 47.8173 40.5099 47.9086 40.2416 47.9917C39.9763 48.0597 39.7073 48.1152 39.4355 48.1578C39.1393 48.1908 38.8712 48.2076 38.5749 48.2159C38.5191 48.2159 38.4633 48.2159 38.3989 48.2076C38.1729 48.1989 37.9474 48.1823 37.7229 48.1578C37.4447 48.1163 37.1859 48.058 36.9077 47.9917C36.6509 47.9089 36.3977 47.8175 36.1486 47.7177C35.9304 47.6178 35.717 47.5096 35.5091 47.3934C36.5216 46.1776 37.0674 44.7003 37.0647 43.1828C37.0647 41.5802 36.5188 40.1432 35.5275 38.9639C35.6483 38.8891 35.7778 38.8228 35.9072 38.7565C36.1488 38.644 36.3961 38.5415 36.6482 38.4493C36.9086 38.3677 37.1745 38.3011 37.4444 38.2501L38.0093 38.1671C38.1388 38.1588 38.2682 38.1588 38.3986 38.1503H38.8706C39.1481 38.1671 39.4263 38.2001 39.7039 38.2501C39.9744 38.299 40.2405 38.3655 40.5001 38.4493C40.7596 38.5406 41 38.6405 41.2503 38.7565C41.4907 38.8729 41.7131 39.0058 41.9355 39.1469C42.1486 39.2962 42.3425 39.4541 42.5464 39.6203C42.7317 39.8029 42.9077 39.9773 43.0743 40.1685C43.2316 40.3677 43.3804 40.5668 43.5098 40.783C43.6392 41.0072 43.7502 41.2232 43.8524 41.4556C43.9447 41.688 44.0189 41.9208 44.0741 42.17C44.1299 42.4189 44.1671 42.6681 44.1858 42.9174C44.1959 43.1831 44.1867 43.4323 44.168 43.698Z" fill="#D0D1D3"></path>
    <path fill-rule="evenodd" clip-rule="evenodd" d="M32.1196 45.3345L32.0552 45.3427L31.6197 45.351C31.3522 44.6534 31.2147 43.921 31.2127 43.1834C31.2127 42.0789 31.5181 41.0325 32.0552 40.1105C32.2743 39.7455 32.5283 39.3982 32.8143 39.0726L33.37 38.9978L33.6384 38.9563L33.7685 38.8482C33.6384 38.7318 33.509 38.624 33.37 38.5159C32.9624 38.2086 32.5275 37.9511 32.0552 37.7517C31.2492 37.4029 30.3514 37.212 29.3602 37.1787H28.9903C26.9617 37.2285 25.1657 38.0922 23.9806 39.4129C23.7769 39.6285 23.6012 39.8613 23.4343 40.1019C23.0795 40.6335 22.8172 41.2104 22.6565 41.8129C22.541 42.2623 22.4819 42.7219 22.4805 43.1831C22.4805 43.2332 22.4897 43.2829 22.4897 43.3324V43.4901C22.4989 43.5401 22.4989 43.5899 22.5084 43.6312V43.648C22.5084 43.6895 22.5176 43.7393 22.5176 43.7808V43.7976C22.5268 43.8477 22.5268 43.8889 22.5363 43.9307V43.9555C22.5455 43.997 22.555 44.0303 22.555 44.0719C22.5642 44.0884 22.5642 44.0966 22.5642 44.1134C22.5734 44.1467 22.5826 44.1797 22.5826 44.2215C22.5918 44.2298 22.5918 44.2463 22.5918 44.263C22.601 44.296 22.6102 44.3293 22.6102 44.3541C22.6194 44.3791 22.6194 44.3956 22.6289 44.4204C22.6384 44.4451 22.6381 44.4704 22.6476 44.4955C22.6568 44.512 22.6568 44.5285 22.6568 44.5453C22.666 44.5532 22.666 44.5621 22.666 44.57C22.6752 44.5868 22.6752 44.6116 22.6848 44.6366C22.694 44.6613 22.7031 44.6946 22.7123 44.7197C22.7123 44.7362 22.7216 44.7527 22.7216 44.7695C22.7403 44.811 22.7495 44.8443 22.7587 44.8855C22.8142 45.0434 22.8697 45.1848 22.9347 45.3339C23.0712 45.6536 23.2385 45.962 23.4346 46.2557C23.5998 46.4985 23.7823 46.7315 23.9809 46.9533C24.1198 47.1112 24.2775 47.2608 24.4348 47.4102C24.4811 47.3769 24.5921 47.3103 24.6109 47.2938C24.6197 47.0446 24.6759 46.7541 24.6851 46.4964L24.8332 46.3302C25.5092 45.4417 25.9349 44.3453 25.9441 43.1828C25.9426 42.555 25.8237 41.9318 25.5923 41.3392L26.0186 40.9904C25.8147 40.5253 25.5095 40.0687 25.1666 39.6615L25.2129 39.62C25.2494 39.5867 25.296 39.5537 25.3332 39.5201C25.6797 39.9329 25.963 40.3854 26.1757 40.8655C26.1944 40.9071 26.2128 40.9404 26.2315 40.9816C26.2315 40.9899 26.2315 40.9984 26.2407 40.9984C26.2499 41.0399 26.2594 41.0815 26.2772 41.1148C26.2772 41.1227 26.2864 41.1395 26.2864 41.1478C26.3051 41.1811 26.3143 41.2141 26.3235 41.2559C26.3327 41.2638 26.3327 41.2806 26.3422 41.2889C26.3514 41.3222 26.3609 41.3552 26.3793 41.3887C26.3793 41.4055 26.3885 41.4303 26.398 41.455C26.4072 41.4801 26.4161 41.5048 26.4259 41.5299C26.4262 41.5529 26.4324 41.5756 26.444 41.5961C26.4532 41.6212 26.4532 41.6459 26.4627 41.671C26.4719 41.704 26.4815 41.7293 26.4815 41.754C26.493 41.7746 26.4994 41.7973 26.5002 41.8203C26.5094 41.8454 26.5189 41.8786 26.5281 41.9117C26.5281 41.9282 26.5373 41.9449 26.5373 41.9614C26.5465 41.9947 26.556 42.028 26.556 42.0613C26.5635 42.077 26.5666 42.0941 26.5652 42.1111C26.5744 42.1444 26.5839 42.1862 26.5931 42.2192V42.2607C26.6023 42.294 26.6112 42.3358 26.6112 42.3771C26.6112 42.3853 26.6204 42.4021 26.6204 42.4101C26.6204 42.4516 26.6296 42.4935 26.6391 42.5347V42.5595C26.6391 42.601 26.6483 42.6511 26.6483 42.6926V42.7094C26.6575 42.7592 26.6575 42.809 26.667 42.8588V43.0243C26.6762 43.0744 26.6762 43.1242 26.6762 43.1822C26.6762 44.5524 26.1763 45.815 25.3338 46.8449C25.0835 47.1106 25.1673 47.0608 24.667 47.5342C25.5378 48.2816 26.5189 48.8048 27.7414 49.0455L28.0561 48.6054C28.3616 48.6551 28.6671 48.6884 28.9916 48.6964H29.1676C30.2135 48.6964 31.1955 48.4643 32.0565 48.0489C32.2046 47.9826 32.334 47.9078 32.4726 47.8329L32.6579 47.7416L33.371 47.7086L33.5004 47.7004C33.5842 47.6255 33.6121 47.609 33.6949 47.5342C33.5838 47.4344 33.4725 47.3265 33.371 47.2187C32.828 46.6651 32.4038 46.0263 32.1196 45.3345ZM25.2859 42.1705C25.3417 42.4195 25.3696 42.6687 25.3975 42.9179C25.4067 43.1836 25.3975 43.4329 25.3696 43.6986C25.3417 43.9475 25.2859 44.1885 25.2215 44.4377C25.1491 44.6743 25.0624 44.9071 24.962 45.1353C24.851 45.3595 24.7308 45.5757 24.5918 45.7917C24.5547 45.8332 24.5179 45.883 24.4808 45.9328C24.4457 45.8864 24.4117 45.8394 24.379 45.7917C24.2433 45.5772 24.1167 45.3583 23.9993 45.1353C23.9901 45.1188 23.9901 45.0938 23.9806 45.0773C23.8878 44.868 23.8075 44.6546 23.7398 44.4377C23.6771 44.1936 23.6277 43.947 23.5917 43.6986C23.5637 43.4326 23.5637 43.1834 23.5637 42.9179C23.5917 42.6687 23.6193 42.4195 23.6751 42.1705C23.7398 41.9213 23.814 41.6889 23.8971 41.4562C23.925 41.3981 23.9526 41.3398 23.9806 41.29C24.0548 41.1159 24.1474 40.9498 24.24 40.7836C24.314 40.659 24.3974 40.5426 24.4808 40.4263C24.5639 40.5426 24.6477 40.659 24.7213 40.7836C24.8513 41.0078 24.9623 41.2237 25.0645 41.4562C25.1473 41.6889 25.2215 41.9213 25.2859 42.1705ZM32.0552 47.4856C31.9071 47.5686 31.7583 47.6435 31.5917 47.7183C31.3427 47.8182 31.0894 47.9096 30.8327 47.9923C30.5637 48.0586 30.2956 48.1169 30.0181 48.1584C29.7307 48.1914 29.4531 48.2082 29.166 48.2165C29.1102 48.2165 29.0452 48.2165 28.99 48.2082C28.7638 48.1998 28.5381 48.1832 28.3134 48.1584C28.0388 48.1157 27.7669 48.0602 27.4988 47.9923C27.242 47.9095 26.9888 47.8181 26.7397 47.7183C26.5287 47.6247 26.3244 47.5193 26.1281 47.4028C27.1007 46.2232 27.6837 44.7618 27.6837 43.1837C27.6837 41.5728 27.1279 40.1358 26.1373 38.9568C26.2489 38.8826 26.3665 38.816 26.4891 38.7574C26.733 38.6433 26.9834 38.5407 27.2393 38.4501C27.4996 38.3685 27.7656 38.302 28.0355 38.251L28.5912 38.1679C28.7302 38.1597 28.8596 38.1597 28.9897 38.1511H29.4525C29.7392 38.1679 30.0076 38.2009 30.295 38.251C30.5633 38.3008 30.8228 38.3674 31.0912 38.4501C31.3448 38.5391 31.5923 38.6417 31.8322 38.7574C31.9153 38.7907 31.9895 38.8322 32.0546 38.8738C32.0818 38.8903 32.1098 38.8985 32.1377 38.9153L32.2306 38.9403C32.1748 39.0152 32.1098 39.0814 32.0546 39.1563C31.1654 40.3022 30.6747 41.6727 30.6747 43.1839C30.6729 44.6101 31.1541 46.0031 32.0546 47.1786C32.1189 47.2537 32.1748 47.32 32.2306 47.3945C32.1754 47.4297 32.1167 47.4602 32.0552 47.4856Z" fill="#D0D1D3"></path>
    <path fill-rule="evenodd" clip-rule="evenodd" d="M23.98 47.2193L23.7488 46.9868C23.6374 46.8622 23.5359 46.7294 23.4338 46.5965C23.1432 46.2014 22.9039 45.7778 22.7207 45.3339L22.656 45.3421L22.2208 45.3504C21.9484 44.6539 21.8105 43.9209 21.8131 43.1828C21.8131 42.0619 22.1186 41.0237 22.656 40.1099C22.878 39.7446 23.1375 39.3958 23.4246 39.0721H23.4338L23.98 38.9972L24.2579 38.9557L24.3876 38.8476C24.2563 38.7298 24.1203 38.6162 23.98 38.507C23.8064 38.3755 23.6239 38.2535 23.4338 38.1417C23.1875 37.9895 22.9273 37.8562 22.656 37.7432C21.8595 37.3944 20.9614 37.2117 19.9892 37.1787H19.6095C19.3178 37.1865 19.0271 37.2114 18.739 37.2533C17.3224 37.4527 16.0443 38.059 15.0629 38.9309C14.8887 39.0938 14.7219 39.2627 14.5626 39.4374C14.3682 39.6615 14.1829 39.8943 14.0259 40.1432C13.6738 40.6664 13.4238 41.2397 13.2665 41.8456C13.154 42.2841 13.098 42.7326 13.0996 43.1825V43.3401C13.0996 43.3817 13.0996 43.4314 13.1092 43.4812V43.4895C13.1092 43.5396 13.1092 43.5893 13.1184 43.6306V43.6474C13.1184 43.6889 13.1276 43.7387 13.1276 43.7802C13.1276 43.7885 13.1276 43.797 13.1368 43.797C13.1368 43.8471 13.146 43.8884 13.146 43.9302C13.146 43.9384 13.1552 43.9467 13.1552 43.9549C13.1552 43.9965 13.1644 44.0298 13.1739 44.0713V44.1128C13.1831 44.1461 13.1923 44.1791 13.2015 44.2209C13.2015 44.2292 13.2015 44.2457 13.2107 44.2625C13.2107 44.2955 13.2199 44.3288 13.2294 44.3535C13.2294 44.3786 13.2386 44.3951 13.2386 44.4198C13.2478 44.4448 13.257 44.4699 13.257 44.4949C13.257 44.5029 13.2662 44.5114 13.2662 44.5114C13.2662 44.5282 13.2754 44.5447 13.2754 44.5695C13.287 44.5901 13.2934 44.6129 13.2941 44.636C13.3033 44.6608 13.3128 44.6941 13.322 44.7191C13.3312 44.7356 13.3312 44.7521 13.3404 44.7689C13.3496 44.8104 13.3591 44.8437 13.368 44.885H13.3772C13.4229 45.0372 13.4785 45.1869 13.5437 45.3333C13.6781 45.6431 13.8392 45.9431 14.0256 46.2304C14.1842 46.4748 14.3636 46.708 14.5623 46.9277C14.7191 47.1016 14.8861 47.268 15.0626 47.4261C15.0717 47.4261 15.0717 47.4344 15.0809 47.4344C15.1181 47.4676 15.146 47.3345 15.1828 47.3595L15.2291 46.5371C15.2941 46.4292 15.3309 46.3712 15.3956 46.3132C16.102 45.3909 16.4856 44.3007 16.4976 43.1819C16.4976 42.5344 16.3774 41.9114 16.1458 41.3384L16.5718 40.9896C16.3774 40.533 16.0811 40.0928 15.7477 39.6857C15.7753 39.6689 15.794 39.6442 15.8216 39.6194C15.8496 39.5944 15.8867 39.5694 15.9143 39.5446C16.2495 39.9522 16.5263 40.3959 16.7384 40.8653C16.7571 40.9068 16.7663 40.9401 16.7847 40.9813C16.7939 40.9896 16.7939 40.9981 16.7939 40.9981C16.8126 41.0397 16.831 41.0812 16.8402 41.1145C16.8494 41.1224 16.8494 41.1392 16.8494 41.1475C16.8681 41.1808 16.877 41.2138 16.8957 41.2556C16.8957 41.2636 16.9049 41.2803 16.9049 41.2886C16.9233 41.3219 16.9325 41.3549 16.942 41.3885C16.9535 41.4091 16.9598 41.4317 16.9604 41.4547L16.9883 41.5296C16.9975 41.5546 17.0071 41.5796 17.0071 41.5959L17.0347 41.6707C17.0354 41.6991 17.0416 41.7272 17.0531 41.7538C17.0623 41.7705 17.0623 41.7953 17.0718 41.82C17.081 41.8451 17.081 41.8784 17.0905 41.9114C17.0997 41.9279 17.0997 41.9447 17.0997 41.9612L17.1273 42.061C17.1273 42.0778 17.1365 42.0943 17.1365 42.1108C17.1457 42.1441 17.1457 42.1859 17.1552 42.2189C17.1552 42.2357 17.1644 42.2439 17.1644 42.2604C17.1644 42.2937 17.1736 42.3356 17.1831 42.3768V42.4098C17.1923 42.4513 17.1923 42.4932 17.2015 42.5344V42.5592C17.2107 42.6007 17.2107 42.6508 17.2199 42.6923V42.7091C17.2199 42.7589 17.2291 42.8087 17.2291 42.8585V42.8664C17.2291 42.9165 17.2383 42.9663 17.2383 43.0161V43.1819C17.2383 44.5359 16.7476 45.7979 15.9143 46.8196C15.6551 47.1268 15.4515 47.3678 15.2291 47.5669C16.1067 48.3058 17.1918 48.8168 18.3682 49.0452L18.6737 48.6051C18.6944 48.6118 18.7164 48.6147 18.7384 48.6133C19.0255 48.6631 19.3126 48.6882 19.6088 48.6961H19.7846C20.8219 48.6961 21.8033 48.464 22.6553 48.0568C22.7664 48.0071 22.8682 47.9487 22.97 47.8989L23.2292 47.7496L23.4328 47.7328L23.9791 47.6913L24.0809 47.683C24.1643 47.5999 24.1919 47.6082 24.2845 47.5337L24.229 47.4836L23.98 47.2193ZM15.8499 42.17C15.8962 42.4189 15.9333 42.6681 15.9517 42.9174C15.9609 43.1831 15.9517 43.4323 15.9333 43.698C15.8973 43.9464 15.8478 44.1931 15.7852 44.4372C15.7112 44.6781 15.6186 44.9023 15.5165 45.1348C15.4055 45.3589 15.2852 45.5752 15.1463 45.7911C15.1187 45.8241 15.0908 45.8574 15.0629 45.8989C15.0437 45.8601 15.0187 45.8238 14.9886 45.7911C14.8524 45.5783 14.7288 45.3593 14.6185 45.1348L14.5629 45.0101C14.4821 44.8222 14.4111 44.631 14.3501 44.4372C14.2871 44.1931 14.2377 43.9465 14.202 43.698C14.1832 43.432 14.1744 43.1828 14.1832 42.9174C14.202 42.6681 14.2388 42.4189 14.2851 42.17C14.3501 41.9208 14.424 41.6883 14.5166 41.4556C14.5258 41.4141 14.5442 41.3808 14.5629 41.3475C14.6464 41.1566 14.7482 40.9739 14.85 40.783C14.9239 40.6749 14.989 40.5668 15.0629 40.4675C15.1368 40.5671 15.211 40.6749 15.2852 40.783C15.4055 41.0072 15.5165 41.2232 15.6186 41.4556C15.7109 41.6883 15.7852 41.9208 15.8499 42.17ZM22.656 47.5015C22.5139 47.5784 22.3687 47.6505 22.2208 47.7177C21.9616 47.8173 21.7208 47.9086 21.4522 47.9917C21.1838 48.058 20.9151 48.1163 20.6372 48.1578C20.3502 48.1908 20.0818 48.2076 19.7852 48.2159C19.7297 48.2159 19.665 48.2159 19.6095 48.2076C19.3835 48.1989 19.158 48.1823 18.9335 48.1578C18.8688 48.1496 18.8037 48.1328 18.739 48.1246C18.5354 48.083 18.3314 48.0415 18.1186 47.9917C17.8617 47.9089 17.6084 47.8175 17.3592 47.7177C17.1279 47.6096 16.9148 47.5015 16.7016 47.3854C17.7069 46.17 18.2491 44.6965 18.248 43.1831C18.248 41.5805 17.7018 40.152 16.7108 38.9725C16.8434 38.8957 16.9794 38.8236 17.1184 38.7565C17.3582 38.6409 17.6055 38.5383 17.8591 38.4493C18.1195 38.3677 18.3854 38.3012 18.6553 38.2501L18.7387 38.2334L19.211 38.1671C19.35 38.1588 19.4797 38.1588 19.6091 38.1503H20.072C20.359 38.1671 20.6366 38.2001 20.9145 38.2501C21.1924 38.2999 21.4515 38.3665 21.711 38.4493C21.9668 38.5398 22.2171 38.6424 22.4609 38.7565C22.5256 38.7898 22.5906 38.8228 22.6553 38.8564C22.6924 38.8812 22.7292 38.8979 22.7572 38.9144L22.7943 38.956C22.748 39.014 22.7016 39.0638 22.6553 39.1218C21.7478 40.2763 21.2755 41.6547 21.2755 43.1828C21.2751 44.6113 21.7561 46.0066 22.6553 47.1857C22.72 47.2608 22.7756 47.3268 22.8311 47.4019C22.7742 47.4372 22.7158 47.4704 22.656 47.5015Z" fill="#D0D1D3"></path>
  </g>
</svg>
