<?xml version="1.0" encoding="UTF-8"?>
<svg xmlns="http://www.w3.org/2000/svg" width="50" height="50" viewBox="0 0 50 50" fill="none">
  <g clip-path="url(#clip0_107_2)">
    <path d="M25 50C38.7756 50 50 38.8558 50 25C49.9358 11.1599 38.7836 0 25 0C11.1601 0 0 11.1442 0 25C0 38.8558 11.1601 50 25 50ZM29.6615 37.6958C29.2683 39.6237 28.5462 43.5894 26.9095 45.2508C26.388 45.7681 25.7943 46.0187 25.2728 46.0187H25.008C20.4189 46.0187 16.0864 44.7335 12.5401 42.6802L12.4118 42.5548C12.0828 42.3042 11.8902 42.0377 11.8902 41.6615C11.8902 41.2696 11.9545 41.1442 12.0908 40.8933L12.2914 40.5017C13.1419 39.0908 15.6371 35.5017 20.3626 32.0377C21.9994 30.7523 24.1015 29.2162 26.2676 28.3229C27.431 27.8371 32.1566 26.4262 29.6615 37.6958ZM42.3219 12.5862C42.386 12.3354 42.5225 12.069 42.715 11.9436C42.8434 11.9436 42.9798 11.9436 43.2366 12.3354C46.1891 15.9248 47.8979 20.2821 47.8979 25.0312C47.8979 33.6206 42.2577 41.0502 34.1223 44.2633C33.6007 44.5142 33.2718 44.5142 33.1354 44.2633C33.0712 44.1379 33.0071 43.8715 33.1354 43.4952C33.1996 43.37 33.2638 43.1035 33.336 42.8527C37.7327 32.7273 41.1425 17.7273 42.0651 13.3699C42.1935 13.0878 42.2577 12.7116 42.3219 12.5862ZM20.3466 12.1944C20.7397 10.2665 21.4618 6.30094 23.0985 4.6395C23.62 4.24765 24.2779 3.99687 24.8074 3.99687H25.0722C29.6615 3.99687 33.9939 5.28212 37.5401 7.33542L37.6684 7.46081C37.9974 7.7116 38.19 7.97806 38.19 8.35423C38.19 8.73042 38.1258 8.87148 37.9894 9.12225L37.7889 9.5141C36.9383 10.9248 34.4432 14.3887 29.7818 17.9781C28.1451 19.2633 26.043 20.7994 23.8768 21.6927C22.577 22.069 17.8515 23.4796 20.3466 12.1944ZM15.8135 5.78371C16.335 5.53292 16.664 5.53292 16.8004 5.78371C16.8646 5.90908 16.8646 6.17554 16.8004 6.55173C16.7363 6.67712 16.672 6.94358 16.5998 7.19435C12.2031 17.3197 8.79332 32.3198 7.87067 36.6771C7.80648 36.9279 7.7423 37.3198 7.67009 37.4452C7.60591 37.6958 7.46951 37.9623 7.27696 38.0877C7.14858 38.0877 7.0122 38.0877 6.75546 37.6958C3.80295 34.1067 2.09403 29.7492 2.09403 25C2.03786 16.4263 7.75032 8.99687 15.8135 5.78371Z" fill="#02b5ff"></path>
  </g>
  <defs>
    <clipPath id="clip0_107_2">
      <rect width="50" height="50" fill="white"></rect>
    </clipPath>
  </defs>
</svg>
