<?xml version="1.0" encoding="UTF-8"?>
<svg xmlns="http://www.w3.org/2000/svg" width="50" height="50" viewBox="0 0 50 50" fill="none">
  <mask id="mask0_3316_100" style="mask-type:alpha" maskUnits="userSpaceOnUse" x="0" y="0" width="50" height="50">
    <rect width="50" height="50" fill="#D9D9D9"></rect>
  </mask>
  <g mask="url(#mask0_3316_100)">
    <path d="M49.4521 24.999C49.4521 38.5146 38.5146 49.4521 24.999 49.4521C11.4834 49.4521 0.545898 38.5146 0.545898 24.999C0.545898 11.4834 11.4834 0.545898 24.999 0.545898C38.5146 0.545898 49.4521 11.4834 49.4521 24.999ZM24.999 2.03027C12.2646 2.03027 2.03027 12.2646 2.03027 24.999C2.03027 37.7334 12.3428 47.9678 24.999 47.9678C37.7334 47.9678 47.9678 37.6553 47.9678 24.999C47.9678 12.2646 37.7334 2.03027 24.999 2.03027Z" fill="url(#paint0_linear_3316_100)"></path>
    <path d="M25 2.03223C12.2656 2.03223 2.03125 12.2666 2.03125 25.001C2.03125 37.7353 12.3437 47.9697 25 47.9697C37.7344 47.9697 47.9687 37.6572 47.9687 25.001C47.9687 12.2666 37.7344 2.03223 25 2.03223ZM25 46.4853C13.125 46.4853 3.51562 36.876 3.51562 25.001C3.51562 13.126 13.125 3.5166 25 3.5166C36.875 3.5166 46.4844 13.126 46.4844 25.001C46.4844 36.876 36.875 46.4853 25 46.4853Z" fill="url(#paint1_linear_3316_100)"></path>
    <path opacity="0.4" d="M25 49.4531C38.5156 49.4531 49.4531 38.5156 49.4531 25C49.4531 11.4844 38.5156 0.546875 25 0.546875C11.4844 0.546875 0.546875 11.4844 0.546875 25C0.546875 38.5156 11.4844 49.4531 25 49.4531ZM25 0C38.75 0 50 11.25 50 25C50 38.75 38.75 50 25 50C11.25 50 0 38.75 0 25C0 11.25 11.25 0 25 0Z" fill="url(#paint2_linear_3316_100)"></path>
    <path d="M1.71777 25.0771C1.71777 12.2646 12.1084 1.71777 24.999 1.71777C37.8896 1.71777 48.2803 12.1865 48.2803 25.0771C48.2803 37.8896 37.8896 48.2803 24.999 48.2803C12.1084 48.2803 1.71777 37.8896 1.71777 25.0771ZM8.9834 8.9834C4.84277 13.124 2.26465 18.8271 2.26465 25.0771C2.26465 31.3271 4.84277 37.0303 8.90527 41.0928C13.0459 45.1553 18.749 47.7334 24.999 47.7334C31.249 47.7334 36.9521 45.2334 41.0146 41.0928C45.1553 37.0303 47.6553 31.3271 47.6553 25.0771C47.6553 18.8271 45.0771 13.124 41.0146 8.9834C36.9521 4.84277 31.249 2.26465 24.999 2.26465C18.749 2.26465 13.0459 4.84277 8.9834 8.9834Z" fill="white"></path>
    <path opacity="0.4" d="M25 46.5615C19.2188 46.5615 13.8281 44.2959 9.76563 40.2334C5.70313 36.1709 3.4375 30.7803 3.4375 24.999C3.4375 19.2178 5.70313 13.8271 9.76563 9.76465C13.8281 5.70215 19.2188 3.43652 25 3.43652C30.7813 3.43652 36.1719 5.70215 40.2344 9.76465C44.2969 13.8271 46.5625 19.2178 46.5625 24.999C46.5625 30.7803 44.2969 36.1709 40.2344 40.2334C36.1719 44.2959 30.7813 46.5615 25 46.5615ZM25 45.9365C30.5469 45.9365 35.8594 43.749 39.7656 39.8428C43.75 35.8584 45.8594 30.624 45.8594 25.0771C45.8594 19.5303 43.6719 14.2178 39.7656 10.3115C35.7813 6.32715 30.5469 4.21777 25 4.21777C19.4531 4.21777 14.1406 6.40527 10.2344 10.3115C6.25 14.1396 4.0625 19.4522 4.0625 24.999C4.0625 30.5459 6.25 35.8584 10.1563 39.7647C14.1406 43.749 19.4531 45.9365 25 45.9365Z" fill="url(#paint3_linear_3316_100)"></path>
    <path d="M43.9854 35.1572C43.5947 34.8447 28.5166 22.8916 28.5166 22.8916L25.001 2.81348C24.7666 2.8916 24.4541 3.12598 24.2979 3.43848L21.7979 22.9697L6.25098 34.9229C6.25098 34.9229 5.93848 35.3135 5.78223 35.5479C5.7041 35.7041 5.7041 35.9385 5.7041 36.1729L24.9229 28.2822L44.1416 36.1729C44.2979 35.7822 44.1416 35.3916 43.9854 35.1572Z" fill="white"></path>
    <path d="M25.1563 25.6232L25 29.2169L42.6562 36.3263C43.2812 36.6388 43.75 36.4826 44.2187 36.1701L25.3906 25.5451C25.3125 25.4669 25.1563 25.5451 25.1563 25.6232Z" fill="#565F64"></path>
    <path d="M25.1553 25.6232C25.1553 25.6232 26.1709 27.4201 27.3428 28.6701C28.9834 30.4669 31.1709 31.7169 31.1709 31.7169L42.6553 36.3263C43.2803 36.6388 43.749 36.4826 44.2178 36.1701L25.3896 25.5451C25.3115 25.4669 25.1553 25.5451 25.1553 25.6232Z" fill="url(#paint4_linear_3316_100)"></path>
    <path d="M44.1406 35.4678C44.1406 35.3896 44.0625 35.3115 43.9844 35.1553L27.8906 23.3584L25.7031 24.7646C25.7031 24.7646 25.8594 24.8428 25.9375 24.7646C26.1719 24.6865 26.6406 24.6084 27.1094 24.7646C27.5 24.9209 44.1406 35.5459 44.1406 35.4678C44.1406 35.5459 44.1406 35.5459 44.1406 35.4678Z" fill="#A4AAAE" fill-opacity="0.6"></path>
    <path d="M43.5928 34.7666L28.5928 22.8916L27.8896 23.3604L43.9834 35.2354C43.9053 35.0791 43.749 34.9229 43.5928 34.7666Z" fill="#333E46"></path>
    <path d="M25.3906 24.4521L25.3125 24.5303C25.3125 24.5303 25.3125 24.6865 25.4687 24.6084C25.5469 24.5303 27.8125 23.3584 28.5937 22.8896L25.8594 4.13965C25.7812 3.43652 25.4687 3.12402 24.9219 2.88965L25.2344 24.6084L25.3906 24.4521Z" fill="#565F64"></path>
    <path d="M24.0625 4.13965V5.15527L22.3438 22.4209C22.3438 22.6553 22.4219 22.8896 22.6563 23.0459L23.6719 23.8271L24.375 4.76465L24.4531 3.28027C24.2187 3.43652 24.1406 3.74902 24.0625 4.13965ZM23.125 24.1396L22.1875 23.3584L6.32813 34.8428C6.32813 34.8428 5.85938 35.1553 5.78125 35.4678L6.32813 35.1553L22.9688 24.6865C23.2813 24.5303 23.3594 24.374 23.125 24.1396Z" fill="#A4AAAE" fill-opacity="0.6"></path>
    <path d="M24.7666 25.6232C24.7666 25.5451 24.6885 25.4669 24.6104 25.5451L5.7041 36.2482C6.17285 36.5607 6.6416 36.6388 7.2666 36.4044L24.9229 29.2951L24.7666 25.6232Z" fill="#565F64"></path>
    <path d="M25.3125 24.5303C25.3125 24.5303 25.3125 24.6084 25.3906 24.6084H25.4687C25.5469 24.5303 27.8125 23.3584 28.5937 22.8896L28.2812 20.624L25.8594 4.13965C25.8594 3.82715 25.7812 3.59277 25.625 3.43652C25.625 3.43652 26.7969 19.2178 26.7969 20.9365C26.7969 23.2021 25.3125 24.5303 25.3125 24.5303Z" fill="url(#paint5_linear_3316_100)"></path>
    <path d="M24.7666 25.6232C24.7666 25.5451 24.6885 25.4669 24.6104 25.5451L5.7041 36.2482C6.17285 36.5607 6.6416 36.6388 7.2666 36.4044L24.9229 29.2951L24.7666 25.6232Z" fill="url(#paint6_linear_3316_100)" fill-opacity="0.8"></path>
    <path opacity="0.8" d="M7.26465 36.3281L24.9209 29.2188L24.7646 25.7812C24.4521 26.7188 23.9053 27.7344 22.4209 28.5156C21.3271 29.1406 10.8584 34.2969 7.1084 36.0938C6.87402 36.25 6.56152 36.3281 6.40527 36.4062C6.71777 36.5625 6.95215 36.4844 7.26465 36.3281Z" fill="url(#paint7_linear_3316_100)"></path>
    <path d="M25.3906 24.4521L25.3125 24.5303C25.3125 24.5303 25.3125 24.6865 25.4687 24.6084C25.5469 24.5303 27.8125 23.3584 28.5937 22.8896L25.8594 4.13965C25.7812 3.43652 25.4687 3.12402 24.9219 2.88965L25.2344 24.6084L25.3906 24.4521Z" fill="url(#paint8_linear_3316_100)"></path>
    <path d="M25.3906 24.4521L25.3125 24.5303C25.3125 24.5303 25.3125 24.6865 25.4687 24.6084C25.5469 24.5303 27.8125 23.3584 28.5937 22.8896L25.8594 4.13965C25.7812 3.43652 25.4687 3.12402 24.9219 2.88965L25.2344 24.6084L25.3906 24.4521Z" fill="url(#paint9_linear_3316_100)"></path>
    <path d="M3.9834 34.6875C3.43652 33.4375 0.311524 27.3438 3.74902 15.625H2.4209C1.71777 17.9688 1.1709 19.375 0.858398 21.4844C0.858398 21.4844 0.702148 22.2656 0.624023 23.125C0.545898 23.9844 0.545898 24.4531 0.545898 25C0.545898 29.6875 1.71777 32.4219 1.71777 32.4219C2.96777 36.3281 5.15527 39.8438 8.12402 42.5C10.7021 44.7656 14.6865 46.4844 17.9678 47.1094C17.4209 47.0312 8.0459 43.0469 3.9834 34.6875Z" fill="url(#paint10_linear_3316_100)"></path>
    <path d="M25.3125 25.4689H24.6094C24.6875 25.4689 24.7656 25.4689 24.7656 25.547L24.9219 29.1408H25L25.1563 25.547C25.1563 25.4689 25.2344 25.3908 25.3125 25.4689Z" fill="url(#paint11_linear_3316_100)"></path>
    <path d="M32.8125 1.79785C41.0156 4.92285 48.75 13.5166 48.75 24.376C48.75 37.501 38.2812 48.2041 25 48.2041V49.4541C38.2812 49.4541 49.4531 38.5166 49.4531 25.001C49.4531 14.2197 42.5781 5.15723 32.8125 1.79785Z" fill="url(#paint12_linear_3316_100)"></path>
    <path d="M45.9375 15.7822C40.4687 3.2041 28.125 2.50098 27.4219 2.42285H27.3438C36.7969 4.1416 42.8125 10.3135 44.9219 16.7979V16.876C45.8594 19.376 46.3281 22.0322 46.4062 24.9229C46.4844 27.6572 45.8594 30.7041 44.6875 33.5166C44.6094 33.9072 44.5312 34.376 44.4531 34.376H45.7031C49.4531 27.3447 47.8125 20.2354 45.9375 15.7822Z" fill="url(#paint13_linear_3316_100)"></path>
    <path d="M1.71777 25.0771C1.71777 12.2646 12.1084 1.71777 24.999 1.71777C37.8896 1.71777 48.2803 12.1865 48.2803 25.0771C48.2803 37.8896 37.8896 48.2803 24.999 48.2803C12.1084 48.2803 1.71777 37.8896 1.71777 25.0771ZM8.9834 8.9834C4.84277 13.124 2.26465 18.8271 2.26465 25.0771C2.26465 31.3271 4.84277 37.0303 8.90527 41.0928C13.0459 45.1553 18.749 47.7334 24.999 47.7334C31.249 47.7334 36.9521 45.2334 41.0146 41.0928C45.1553 37.0303 47.6553 31.3271 47.6553 25.0771C47.6553 18.8271 45.0771 13.124 41.0146 8.9834C36.9521 4.84277 31.249 2.26465 24.999 2.26465C18.749 2.26465 13.0459 4.84277 8.9834 8.9834Z" fill="#FBFBFB"></path>
    <path d="M6.17188 34.999L22.1094 23.5146C22.9687 23.9834 24.375 24.6084 24.5312 24.6084C24.6875 24.6865 24.6875 24.5303 24.6875 24.5303L22.7344 22.8896C22.5 22.7334 22.4219 22.499 22.4219 22.2646L24.2969 3.43652C24.2188 3.51465 24.2188 3.6709 24.1406 3.74902C24.0625 3.90527 24.0625 3.9834 24.0625 4.13965L21.3281 22.9678L6.32813 34.7646C6.25 34.8428 6.17188 34.9209 6.17188 34.999Z" fill="#333F47"></path>
  </g>
  <defs>
    <linearGradient id="paint0_linear_3316_100" x1="6.24746" y1="9.29434" x2="43.7506" y2="40.7037" gradientUnits="userSpaceOnUse">
      <stop stop-color="white"></stop>
      <stop offset="0.1" stop-color="#CDD0D0"></stop>
      <stop offset="0.2" stop-color="#A5ACAF"></stop>
      <stop offset="0.3" stop-color="#98A0A4"></stop>
      <stop offset="0.4" stop-color="#828A8F"></stop>
      <stop offset="0.5" stop-color="#667075"></stop>
      <stop offset="0.6" stop-color="#535C63"></stop>
      <stop offset="0.7" stop-color="#475158"></stop>
      <stop offset="0.8" stop-color="#434D54"></stop>
      <stop offset="1" stop-color="#475157"></stop>
    </linearGradient>
    <linearGradient id="paint1_linear_3316_100" x1="7.39922" y1="10.2033" x2="42.5555" y2="39.7346" gradientUnits="userSpaceOnUse">
      <stop stop-color="#0B1F2A"></stop>
      <stop offset="0.2" stop-color="#333F47"></stop>
      <stop offset="0.5" stop-color="#81898D"></stop>
      <stop offset="0.7" stop-color="#B3B8B8"></stop>
      <stop offset="0.8" stop-color="#DEE0DD"></stop>
      <stop offset="1" stop-color="#FBFBFB"></stop>
    </linearGradient>
    <linearGradient id="paint2_linear_3316_100" x1="33.5445" y1="48.4867" x2="16.4352" y2="1.45625" gradientUnits="userSpaceOnUse">
      <stop stop-color="#E1E3E1"></stop>
      <stop offset="0.1" stop-color="#C1C5C4"></stop>
      <stop offset="0.3" stop-color="#9BA1A2"></stop>
      <stop offset="0.5" stop-color="#7D8487"></stop>
      <stop offset="0.7" stop-color="#687074" stop-opacity="0"></stop>
      <stop offset="0.8" stop-color="#5B6469" stop-opacity="0"></stop>
      <stop offset="1" stop-color="#576065" stop-opacity="0"></stop>
    </linearGradient>
    <linearGradient id="paint3_linear_3316_100" x1="14.2195" y1="6.32793" x2="35.7805" y2="43.6701" gradientUnits="userSpaceOnUse">
      <stop stop-color="#E1E3E1"></stop>
      <stop offset="0.1" stop-color="#C1C5C4"></stop>
      <stop offset="0.3" stop-color="#9BA1A2"></stop>
      <stop offset="0.5" stop-color="#7D8487"></stop>
      <stop offset="0.7" stop-color="#687074" stop-opacity="0"></stop>
      <stop offset="0.8" stop-color="#5B6469" stop-opacity="0"></stop>
      <stop offset="1" stop-color="#576065" stop-opacity="0"></stop>
    </linearGradient>
    <linearGradient id="paint4_linear_3316_100" x1="34.7553" y1="30.774" x2="33.4271" y2="32.9615" gradientUnits="userSpaceOnUse">
      <stop stop-color="#27343C"></stop>
      <stop offset="1" stop-color="#00111E" stop-opacity="0"></stop>
    </linearGradient>
    <linearGradient id="paint5_linear_3316_100" x1="30.9219" y1="22.7428" x2="28.7344" y2="19.2272" gradientUnits="userSpaceOnUse">
      <stop offset="0.1" stop-color="#02131F"></stop>
      <stop offset="0.9" stop-color="#02131F" stop-opacity="0"></stop>
    </linearGradient>
    <linearGradient id="paint6_linear_3316_100" x1="24.9869" y1="28.3857" x2="21.7057" y2="29.3232" gradientUnits="userSpaceOnUse">
      <stop offset="0.2" stop-color="#02131F"></stop>
      <stop offset="0.9" stop-color="#02131F" stop-opacity="0"></stop>
    </linearGradient>
    <linearGradient id="paint7_linear_3316_100" x1="16.242" y1="32.7375" x2="15.7732" y2="31.5656" gradientUnits="userSpaceOnUse">
      <stop stop-color="#02131F"></stop>
      <stop offset="0.1" stop-color="#02131F"></stop>
      <stop offset="1" stop-color="#02131F" stop-opacity="0"></stop>
    </linearGradient>
    <linearGradient id="paint8_linear_3316_100" x1="27.8141" y1="13.4475" x2="25.1578" y2="13.76" gradientUnits="userSpaceOnUse">
      <stop offset="0.3" stop-color="#02131F"></stop>
      <stop offset="0.8" stop-color="#02131F" stop-opacity="0"></stop>
    </linearGradient>
    <linearGradient id="paint9_linear_3316_100" x1="27.8969" y1="13.4029" x2="26.0992" y2="13.6373" gradientUnits="userSpaceOnUse">
      <stop offset="0.4" stop-color="#27343C"></stop>
      <stop offset="1" stop-color="#3B474E" stop-opacity="0"></stop>
    </linearGradient>
    <linearGradient id="paint10_linear_3316_100" x1="-0.282227" y1="25.6492" x2="21.5146" y2="38.2273" gradientUnits="userSpaceOnUse">
      <stop stop-color="#25323B" stop-opacity="0"></stop>
      <stop offset="0.1" stop-color="#27343C"></stop>
    </linearGradient>
    <linearGradient id="paint11_linear_3316_100" x1="24.9609" y1="29.2189" x2="24.9609" y2="25.4689" gradientUnits="userSpaceOnUse">
      <stop offset="0.3" stop-color="#A5ABAF"></stop>
      <stop offset="1" stop-color="#A5ABAF" stop-opacity="0"></stop>
    </linearGradient>
    <linearGradient id="paint12_linear_3316_100" x1="37.2266" y1="1.79785" x2="37.2266" y2="49.4541" gradientUnits="userSpaceOnUse">
      <stop stop-color="#6B7378"></stop>
      <stop offset="0.2" stop-color="#333F47"></stop>
      <stop offset="0.5" stop-color="#27343C"></stop>
      <stop offset="0.8" stop-color="#333F47"></stop>
      <stop offset="1" stop-color="#434D54"></stop>
    </linearGradient>
    <linearGradient id="paint13_linear_3316_100" x1="44.757" y1="6.32363" x2="34.2102" y2="21.7924" gradientUnits="userSpaceOnUse">
      <stop offset="0.7" stop-color="#49545B"></stop>
      <stop offset="0.8" stop-color="white" stop-opacity="0"></stop>
    </linearGradient>
  </defs>
</svg>
